<?xml version="1.0" encoding="utf-8"?>
<!-- Generator: Adobe Illustrator 23.0.0, SVG Export Plug-In . SVG Version: 6.00 Build 0)  -->
<svg version="1.1" id="图层_1" xmlns="http://www.w3.org/2000/svg" xmlns:xlink="http://www.w3.org/1999/xlink" x="0px" y="0px"
	 viewBox="0 0 100 100" style="enable-background:new 0 0 100 100;" xml:space="preserve">
<style type="text/css">
	.st0{fill:#282C47;}
	.st1{fill:none;}
	.st2{enable-background:new    ;}
	.st3{fill:#FFFFFF;}
</style>
<g>
	<g>
		<circle class="st0" cx="50" cy="50" r="50"/>
	</g>
</g>
<rect x="32.39" y="24.77" class="st1" width="36.39" height="50.65"/>
<g class="st2">
	<path class="st3" d="M50.39,75.35c-2.77,0-5.16-0.39-7.16-1.16c-1.94-0.77-3.55-1.94-4.65-3.42c-1.16-1.48-1.94-3.23-2.45-5.23
		c-0.52-1.94-0.77-4.26-0.77-6.9V40.9c0-2.71,0.26-5.03,0.77-7.03c0.52-2,1.29-3.74,2.45-5.23c1.16-1.48,2.71-2.65,4.65-3.35
		c1.94-0.77,4.32-1.16,7.16-1.16c2.71,0,4.97,0.32,6.9,1.03c1.87,0.71,3.35,1.68,4.45,3.03c1.1,1.35,1.87,2.84,2.32,4.52
		c0.45,1.68,0.71,3.61,0.71,5.87v4.32H54v-5.03c0-0.77,0-1.35,0-1.81c0-0.39-0.06-0.9-0.19-1.55s-0.32-1.1-0.52-1.42
		c-0.26-0.32-0.58-0.58-1.1-0.84c-0.45-0.26-1.03-0.39-1.74-0.39c-0.71,0-1.29,0.13-1.74,0.39s-0.84,0.58-1.1,0.9
		c-0.26,0.32-0.45,0.84-0.58,1.42c-0.13,0.58-0.26,1.16-0.26,1.68c0,0.52-0.06,1.1-0.06,1.87v23.29c0,2,0.26,3.55,0.77,4.58
		c0.52,1.03,1.48,1.61,2.97,1.61c0.65,0,1.23-0.13,1.68-0.39c0.45-0.26,0.84-0.52,1.1-0.9c0.26-0.32,0.45-0.84,0.58-1.42
		c0.13-0.65,0.19-1.16,0.26-1.61c0-0.45,0-1.1,0-1.81v-5.23h10.77v4.32c0,1.81-0.13,3.42-0.45,4.84c-0.26,1.42-0.77,2.77-1.42,4.06
		s-1.55,2.32-2.65,3.23c-1.1,0.84-2.45,1.55-4.13,2.06C54.52,75.16,52.58,75.35,50.39,75.35z"/>
</g>
<ellipse class="st0" cx="50" cy="50" rx="30.06" ry="30.65"/>
<g>
	<path class="st3" d="M34.13,34.13c0.13-0.58,0.32-1.16,0.52-1.81s0.45-1.23,0.77-1.81c0.32-0.52,0.77-0.97,1.29-1.35
		s1.23-0.52,2-0.52c0.77,0,1.48,0.19,2.06,0.65c0.58,0.45,1.16,0.84,1.61,1.29c0.58,0.39,1.1,1.16,1.68,2.26
		c0.52,1.16,1.1,2.58,1.61,4.26c0.58,1.68,1.16,3.55,1.81,5.68c0.65,2.13,1.35,4.32,2.13,6.65c0.77,2.32,1.68,4.71,2.65,7.1
		c0.97,2.39,2.06,4.77,3.29,7.03c0.19,0.32,0.45,0.77,0.71,1.23c0.26,0.45,0.52,0.9,0.84,1.35c0.26,0.39,0.52,0.77,0.77,1.03
		s0.39,0.45,0.52,0.45c0.06,0,0.13-0.19,0.26-0.52c0.06-0.32,0.19-0.71,0.32-1.16c0.13-0.45,0.26-0.97,0.32-1.42
		c0.13-0.52,0.26-0.9,0.32-1.16c0.39-1.03,0.9-2.19,1.35-3.48c0.52-1.29,1.03-2.9,1.68-4.77c0.58-1.87,1.29-4.06,2-6.65
		c0.71-2.58,1.55-5.61,2.39-9.1c0.19-0.84,0.45-1.81,0.71-2.9c0.26-1.1,0.52-2.19,0.71-3.35c0.26-1.16,0.45-2.26,0.58-3.35
		c0.19-1.1,0.32-2,0.39-2.84c0-0.13,0-0.39,0.06-0.71c0-0.32,0.06-0.71,0.13-1.1c0.06-0.39,0.13-0.84,0.19-1.29
		c0.06-0.45,0.19-0.84,0.32-1.23c0.13-0.39,0.32-0.71,0.52-0.9c0.19-0.26,0.52-0.39,0.77-0.39c0.32,0,0.71,0.06,1.16,0.13
		c0.45,0.06,0.84,0.19,1.23,0.39c0.39,0.58,0.77,1.29,1.16,2.06c0.32,0.77,0.52,1.87,0.52,3.29c0,0.84-0.06,1.87-0.26,3.1
		c-0.19,1.23-0.39,2.52-0.71,3.87c-0.26,1.35-0.58,2.77-0.9,4.26c-0.32,1.48-0.71,2.84-1.03,4.19c-0.32,1.35-0.71,2.58-1.03,3.68
		c-0.32,1.1-0.58,2.06-0.84,2.77c-0.39,1.29-0.84,2.58-1.23,3.94c-0.45,1.35-0.9,2.77-1.42,4.26c-0.52,1.48-1.1,3.1-1.68,4.71
		c-0.58,1.68-1.29,3.42-2.06,5.35c-0.32,0.84-0.71,1.74-1.16,2.58s-0.9,1.61-1.48,2.32c-0.58,0.71-1.16,1.23-1.87,1.68
		c-0.71,0.45-1.48,0.65-2.32,0.65c-0.52,0-1.03-0.06-1.55-0.19c-0.52-0.13-0.97-0.45-1.35-0.9c-1.81-2.06-3.42-4.45-4.84-7.1
		c-1.42-2.65-2.65-5.42-3.81-8.32c-1.1-2.9-2.13-5.81-2.97-8.77c-0.84-2.97-1.61-5.81-2.32-8.52l-0.19-0.77
		c-0.06-0.32-0.19-0.65-0.26-0.97c-0.06-0.32-0.13-0.58-0.26-0.9c-0.06-0.26-0.19-0.45-0.26-0.65c-0.13-0.19-0.19-0.26-0.32-0.26
		s-0.32,0.26-0.52,0.71c-0.19,0.52-0.39,1.03-0.58,1.61c-0.19,0.58-0.39,1.23-0.52,1.74c-0.19,0.58-0.26,0.97-0.32,1.1
		c-0.13,0.58-0.39,1.42-0.71,2.45c-0.32,1.1-0.65,2.26-1.03,3.61c-0.39,1.35-0.77,2.77-1.23,4.26c-0.45,1.48-0.9,2.97-1.29,4.32
		c-0.39,1.42-0.84,2.71-1.16,3.87c-0.39,1.16-0.71,2.13-0.9,2.9c-0.19,0.58-0.45,1.29-0.71,2.19c-0.26,0.9-0.58,1.81-0.84,2.71
		c-0.26,0.9-0.58,1.74-0.77,2.52c-0.26,0.77-0.39,1.23-0.45,1.48c-0.26,0.84-0.65,1.48-1.16,1.87c-0.52,0.45-1.03,0.65-1.55,0.65
		c-0.32,0-0.65-0.13-0.97-0.32c-0.32-0.26-0.65-0.52-0.9-0.84c-0.26-0.32-0.45-0.71-0.65-1.1c-0.19-0.39-0.26-0.71-0.26-1.03
		c0-0.19,0.06-0.45,0.19-0.84c0.13-0.39,0.26-1.03,0.52-1.94l0.84-3.42L34.13,34.13z"/>
</g>
</svg>
