<?xml version="1.0" encoding="utf-8"?>
<!-- Generator: Adobe Illustrator 23.0.0, SVG Export Plug-In . SVG Version: 6.00 Build 0)  -->
<svg version="1.1" id="图层_1" xmlns="http://www.w3.org/2000/svg" xmlns:xlink="http://www.w3.org/1999/xlink" x="0px" y="0px"
	 viewBox="0 0 1000 180" style="enable-background:new 0 0 1000 180;" xml:space="preserve">
<style type="text/css">
	.st0{display:none;}
	.st1{display:inline;}
	.st2{fill:#1E2225;}
	.st3{display:inline;fill:none;}
	.st4{display:inline;enable-background:new    ;}
	.st5{fill:#FFFFFF;}
	.st6{fill:#282C47;}
	.st7{fill:none;}
	.st8{enable-background:new    ;}
</style>
<g id="Capa_1" class="st0">
	<g class="st1">
		<circle class="st2" cx="127.5" cy="90.5" r="77.5"/>
	</g>
	<rect x="100.2" y="51.4" class="st3" width="56.4" height="78.5"/>
	<g class="st4">
		<path class="st5" d="M105.9,128.8V51.4h20.2c2.9,0,5.5,0.1,7.7,0.4s4.5,0.9,6.7,1.8c2.2,0.9,4.1,2,5.5,3.5
			c1.4,1.4,2.6,3.4,3.5,5.9c0.8,2.3,1.2,5,1.2,8c0,0.2,0,0.4,0,0.7c-0.1,9-3.9,14.2-11.3,15.5c4.4,0.6,7.8,2.5,10.2,5.6
			s3.5,7.5,3.6,13c0,0.2,0,0.4,0,0.5c0,7.6-2,13.2-5.9,16.8c-4,3.7-9.9,5.6-17.5,5.6h-23.9V128.8z M123,82.3h3.3
			c3.7,0,6.2-0.8,7.5-2.5c1.3-1.6,2-4.3,2-7.8c0-6.1-3.3-9.1-10-9.1H123V82.3z M123,116.8h3.6c3.7,0,6.3-0.9,7.8-2.7
			s2.2-4.7,2.2-8.5c0-4.4-0.8-7.4-2.3-9.2s-4.2-2.7-8-2.7H123V116.8z"/>
	</g>
	<rect x="240.2" y="51.4" class="st3" width="705.8" height="78.5"/>
	<g class="st4">
		<path class="st2" d="M253.1,128.8V64h-11.9V51.4H282V64h-11.8v64.7h-17.1V128.8z"/>
		<path class="st2" d="M287.8,128.8V51.4h15.6v27.1c3.9-3.9,8.4-5.9,13.5-5.9c3.3,0,5.8,1.2,7.5,3.6s2.6,5.5,2.6,9.2v43.4h-15.6v-41
			c0-1.4-0.2-2.4-0.7-3.1c-0.4-0.7-1.2-1-2.4-1c-1.4,0-3,0.7-4.9,2v43.1L287.8,128.8L287.8,128.8z"/>
		<path class="st2" d="M354.5,129.8c-6.1,0-10.8-1.6-14.1-4.9c-3.3-3.3-5-7.9-5-13.8V91.2c0-5.9,1.7-10.5,5-13.8s8.1-4.9,14.1-4.9
			c6.1,0,10.7,1.6,13.8,4.7c3.1,3.2,4.6,7.8,4.6,13.9V102h-22.1v9.7c0,2.2,0.3,3.9,0.8,5.1c0.6,1.1,1.5,1.7,2.8,1.7
			c2.6,0,3.9-1.8,3.9-5.4v-3.7h14.5v3.2c0,5.5-1.6,9.7-4.8,12.6C364.8,128.3,360.3,129.8,354.5,129.8z M350.8,94.8h7.6v-5.5
			c0-2.1-0.3-3.5-1-4.4s-1.7-1.3-2.9-1.3c-1.2,0-2.1,0.5-2.7,1.5s-0.9,2.7-0.9,5.1v4.6H350.8z"/>
		<path class="st2" d="M381.3,128.8V73.5h15.3V78c3.7-3.7,8.1-5.5,13.2-5.5c2.2,0,4.1,0.6,5.7,1.7s2.9,2.7,3.7,4.9
			c3.9-4.4,8.6-6.5,14.1-6.5c3.2,0,5.8,1.2,7.7,3.5c1.9,2.4,2.9,5.6,2.9,9.8v42.9h-15.3V87.4c0-1.5-0.3-2.6-0.8-3.3
			c-0.5-0.7-1.4-1-2.5-0.9c-1.7,0.1-3.4,0.7-5.1,2v0.7v42.9H405V87.4c0-1.5-0.3-2.6-0.8-3.3c-0.5-0.7-1.4-1-2.5-1
			c-1.6,0.1-3.3,0.8-5.2,2.1v43.5h-15.2V128.8z"/>
		<path class="st2" d="M471.3,129.8c-6.1,0-10.8-1.6-14.1-4.9c-3.3-3.3-5-7.9-5-13.8V91.2c0-5.9,1.7-10.5,5-13.8s8.1-4.9,14.1-4.9
			c6.1,0,10.7,1.6,13.8,4.7c3.1,3.2,4.6,7.8,4.6,13.9V102h-22.1v9.7c0,2.2,0.3,3.9,0.8,5.1c0.6,1.1,1.5,1.7,2.8,1.7
			c2.6,0,3.9-1.8,3.9-5.4v-3.7h14.5v3.2c0,5.5-1.6,9.7-4.8,12.6C481.7,128.3,477.1,129.8,471.3,129.8z M467.6,94.8h7.6v-5.5
			c0-2.1-0.3-3.5-1-4.4s-1.7-1.3-2.9-1.3c-1.2,0-2.1,0.5-2.7,1.5s-0.9,2.7-0.9,5.1v4.6H467.6z"/>
		<path class="st2" d="M514.4,129.8c-4.7,0-8.6-1.1-11.7-3.3s-5.6-5.7-7.5-10.6l10.8-4.7c1.1,2.6,2.3,4.6,3.7,6.1c1.3,1.3,2.6,2,4,2
			c0.2,0,0.3,0,0.5,0c1-0.1,1.8-0.4,2.4-1.1s1-1.6,0.9-2.6c0-0.5-0.2-1.1-0.6-1.7c-0.4-0.6-1-1.4-2-2.3s-1.7-1.6-2.1-1.9
			c-0.4-0.3-1.3-1.1-2.7-2.3l-4.3-3.7c-6.3-5.3-9.4-10.5-9.4-15.5c0-3,0.8-5.7,2.4-8.1s3.6-4.2,6.2-5.4c2.6-1.3,5.4-1.9,8.4-1.9
			c4.5,0,8.3,1.2,11.3,3.7s5.2,6,6.4,10.5L521,91.7c-0.6-2.1-1.5-3.9-2.7-5.5s-2.5-2.4-4-2.5c-0.1,0-0.1,0-0.1,0
			c-1.1,0-2,0.3-2.6,0.9c-0.7,0.6-1,1.4-1.1,2.3c-0.1,1.5,2.1,4.1,6.6,7.9c0.4,0.3,0.7,0.6,0.8,0.7l4.2,3.7c1.6,1.4,2.8,2.5,3.6,3.3
			s1.8,1.9,2.9,3.3c1.2,1.4,2,2.8,2.5,4.3s0.8,3,0.8,4.7c0,3.1-0.8,5.9-2.5,8.2c-1.7,2.3-3.8,4.1-6.5,5.2
			C520.2,129.3,517.5,129.8,514.4,129.8z"/>
		<path class="st2" d="M563.9,128.8V51.4h20.2c2.9,0,5.5,0.1,7.7,0.4s4.5,0.9,6.7,1.8s4.1,2,5.5,3.5c1.4,1.4,2.6,3.4,3.5,5.9
			c0.8,2.3,1.2,5,1.2,8c0,0.2,0,0.4,0,0.7c-0.1,9-3.9,14.2-11.3,15.5c4.4,0.6,7.8,2.5,10.2,5.6s3.5,7.5,3.6,13c0,0.2,0,0.4,0,0.5
			c0,7.6-2,13.2-5.9,16.8c-4,3.7-9.9,5.6-17.5,5.6h-23.9V128.8z M581,82.3h3.3c3.7,0,6.2-0.8,7.5-2.5c1.3-1.6,2-4.3,2-7.8
			c0-6.1-3.3-9.1-10-9.1H581V82.3z M581,116.8h3.6c3.7,0,6.3-0.9,7.8-2.7s2.2-4.7,2.2-8.5c0-4.4-0.8-7.4-2.3-9.2s-4.2-2.7-8-2.7H581
			V116.8z"/>
		<path class="st2" d="M651.6,125.1c-3.4,3.1-8.2,4.7-14.2,4.7s-10.8-1.6-14.1-4.7s-5.1-7.6-5.1-13.5V90.7c0-5.9,1.7-10.4,5.1-13.5
			s8.1-4.6,14.1-4.6s10.8,1.6,14.2,4.7s5.2,7.6,5.2,13.5v20.9C656.8,117.5,655.1,122,651.6,125.1z M637.4,119.3
			c1.5,0,2.5-0.6,3.1-1.7s0.9-2.8,0.9-5v-23c0-2.2-0.3-3.9-0.9-5c-0.6-1.1-1.6-1.7-3.1-1.7c-1.4,0-2.4,0.6-3,1.7s-0.9,2.8-0.9,5v23
			c0,2.1,0.3,3.8,0.9,4.9C635,118.7,636,119.3,637.4,119.3z"/>
		<path class="st2" d="M697.8,125.1c-3.4,3.1-8.2,4.7-14.2,4.7s-10.8-1.6-14.1-4.7c-3.4-3.1-5.1-7.6-5.1-13.5V90.7
			c0-5.9,1.7-10.4,5.1-13.5c3.4-3.1,8.1-4.6,14.1-4.6s10.8,1.6,14.2,4.7s5.2,7.6,5.2,13.5v20.9C703,117.5,701.2,122,697.8,125.1z
			 M683.6,119.3c1.5,0,2.5-0.6,3.1-1.7s0.9-2.8,0.9-5v-23c0-2.2-0.3-3.9-0.9-5c-0.6-1.1-1.6-1.7-3.1-1.7c-1.4,0-2.4,0.6-3,1.7
			s-0.9,2.8-0.9,5v23c0,2.1,0.3,3.8,0.9,4.9C681.1,118.7,682.2,119.3,683.6,119.3z"/>
		<path class="st2" d="M727.3,129.4c-1.7-0.1-3.3-0.3-4.6-0.7s-2.6-1-3.5-1.6c-1-0.7-1.8-1.5-2.5-2.5s-1.3-2-1.7-3.1s-0.8-2.3-1-3.7
			c-0.2-1.4-0.4-2.7-0.5-4s-0.1-2.7-0.1-4.4V83.7h-5.3V73.5h5.3V56.8h15.7v16.8h7.9v10.2h-7.9v28.6c0,2.9,1.7,4.4,5,4.5
			c0.4,0,0.9,0,1.4,0s0.9-0.1,1.3-0.1c0.3,0,0.7-0.1,1-0.2s0.5-0.1,0.5-0.1v12.3c-3.3,0.6-6.4,0.8-9.2,0.8
			C728.3,129.5,727.8,129.5,727.3,129.4z"/>
		<path class="st2" d="M761.6,129.8c-4.7,0-8.6-1.1-11.7-3.3s-5.6-5.7-7.5-10.6l10.8-4.7c1.1,2.6,2.3,4.6,3.7,6.1c1.3,1.3,2.6,2,4,2
			c0.2,0,0.3,0,0.5,0c1-0.1,1.8-0.4,2.4-1.1s1-1.6,0.9-2.6c0-0.5-0.2-1.1-0.6-1.7c-0.4-0.6-1-1.4-2-2.3s-1.7-1.6-2.1-1.9
			c-0.4-0.3-1.3-1.1-2.7-2.3l-4.3-3.7c-6.3-5.3-9.4-10.5-9.4-15.5c0-3,0.8-5.7,2.4-8.1c1.6-2.4,3.6-4.2,6.2-5.4s5.4-1.9,8.4-1.9
			c4.5,0,8.3,1.2,11.3,3.7s5.2,6,6.4,10.5l-10.1,4.7c-0.6-2.1-1.5-3.9-2.7-5.5s-2.5-2.4-4-2.5c-0.1,0-0.1,0-0.1,0
			c-1.1,0-2,0.3-2.6,0.9c-0.7,0.6-1,1.4-1.1,2.3c-0.1,1.5,2.1,4.1,6.6,7.9c0.4,0.3,0.7,0.6,0.8,0.7l4.2,3.7c1.6,1.4,2.8,2.5,3.6,3.3
			s1.8,1.9,2.9,3.3c1.2,1.4,2,2.8,2.5,4.3s0.8,3,0.8,4.7c0,3.1-0.8,5.9-2.5,8.2c-1.7,2.3-3.8,4.1-6.5,5.2
			C767.6,129.2,764.7,129.8,761.6,129.8z"/>
		<path class="st2" d="M801.4,129.4c-1.7-0.1-3.3-0.3-4.6-0.7c-1.4-0.4-2.6-1-3.5-1.6c-1-0.7-1.8-1.5-2.5-2.5s-1.3-2-1.7-3.1
			s-0.8-2.3-1-3.7s-0.4-2.7-0.5-4s-0.1-2.7-0.1-4.4V83.7h-5.3V73.5h5.3V56.8h15.7v16.8h7.9v10.2h-7.9v28.6c0,2.9,1.7,4.4,5,4.5
			c0.4,0,0.9,0,1.4,0s0.9-0.1,1.3-0.1c0.3,0,0.7-0.1,1-0.2s0.5-0.1,0.5-0.1v12.3c-3.3,0.6-6.4,0.8-9.2,0.8
			C802.5,129.5,802,129.5,801.4,129.4z"/>
		<path class="st2" d="M819.7,128.8V73.5h15.6v9.2c3.4-6.6,7.1-9.9,11.1-9.9c0.6,0,1.3,0.1,2.2,0.4V87c-0.9-0.2-1.7-0.3-2.6-0.3
			c-4.3,0.2-7.8,2.4-10.7,6.7v35.4L819.7,128.8L819.7,128.8z"/>
		<path class="st2" d="M866.1,129.8c-3.9-0.1-7-1.5-9.4-4.2c-2.3-2.7-3.5-5.8-3.5-9.3c0-1.8,0.2-3.5,0.7-5.1s1-2.9,1.6-4.1
			s1.5-2.3,2.7-3.4s2.2-2,3.1-2.6c0.9-0.7,2.2-1.4,3.7-2.1c1.5-0.8,2.8-1.3,3.7-1.7c0.9-0.4,2.2-0.9,3.8-1.5s2.7-1,3.4-1.3V89
			c0-1.6-0.2-2.8-0.7-3.6s-1.3-1.3-2.6-1.3c-2.1,0-3.2,1.5-3.4,4.4l-0.4,4.1L854.4,92c0-0.1,0-0.4,0-0.9s0-0.8,0-0.9
			c0.5-6,2.3-10.5,5.6-13.3c3.3-2.9,8-4.3,14.1-4.3c5.4,0,9.6,1.5,12.4,4.5c2.8,3,4.3,7,4.3,12.1v25.7c0,3.5,0.3,8.2,1,13.9H878
			c-0.8-4.5-1.2-7.1-1.3-7.8c-0.7,2.5-2,4.6-3.8,6.3C871.1,128.9,868.8,129.8,866.1,129.8z M871.7,119c0.7,0,1.5-0.3,2.3-0.8
			s1.4-1.1,1.9-1.8v-15.1c-2.5,1.2-4.5,3-6.1,5.3s-2.4,4.5-2.4,6.6c0,1.8,0.4,3.2,1.2,4.3C869.4,118.5,870.5,119,871.7,119z"/>
		<path class="st2" d="M900.2,147V73.5h15.6v4.1c3.8-3.3,7.6-5,11.5-5c0.2,0,0.4,0,0.5,0c4,0.1,6.9,1.7,8.9,4.8
			c1.9,3,2.9,6.9,2.9,11.6v23.6c0,5.3-1,9.5-3.2,12.6c-2.1,3.1-5.1,4.7-9,4.7s-7.7-1.7-11.7-5.1V147H900.2z M920,119.6
			C920,119.6,920.1,119.6,920,119.6c1.4,0,2.4-0.6,3-1.7c0.6-1.2,0.9-2.7,1-4.5V87.7c0-1.7-0.3-3.1-1-4.2c-0.6-1-1.5-1.5-2.7-1.5
			c-0.1,0-0.3,0-0.4,0c-1.2,0.1-2.5,0.7-4.1,1.8v34.3C917.3,119.1,918.7,119.6,920,119.6z"/>
	</g>
</g>
<g id="Capa_2" class="st0">
	<g class="st1">
		<circle class="st2" cx="128.5" cy="90" r="77.5"/>
	</g>
	<rect x="101.2" y="50.9" class="st3" width="56.4" height="78.5"/>
	<g class="st4">
		<path class="st5" d="M106.9,128.3V50.9h20.2c2.9,0,5.5,0.1,7.7,0.4s4.5,0.9,6.7,1.8c2.2,0.9,4.1,2,5.5,3.5
			c1.4,1.4,2.6,3.4,3.5,5.9c0.8,2.3,1.2,5,1.2,8c0,0.2,0,0.4,0,0.7c-0.1,9-3.9,14.2-11.3,15.5c4.4,0.6,7.8,2.5,10.2,5.6
			s3.5,7.5,3.6,13c0,0.2,0,0.4,0,0.5c0,7.6-2,13.2-5.9,16.8c-4,3.7-9.9,5.6-17.5,5.6h-23.9V128.3z M124,81.8h3.3
			c3.7,0,6.2-0.8,7.5-2.5c1.3-1.6,2-4.3,2-7.8c0-6.1-3.3-9.1-10-9.1H124V81.8z M124,116.3h3.6c3.7,0,6.3-0.9,7.8-2.7
			s2.2-4.7,2.2-8.5c0-4.4-0.8-7.4-2.3-9.2s-4.2-2.7-8-2.7H124V116.3z"/>
	</g>
	<rect x="241.2" y="50.9" class="st3" width="705.8" height="78.5"/>
	<g class="st4">
		<path class="st2" d="M254.1,128.3V63.5h-11.9V50.9H283v12.6h-11.8v64.7h-17.1V128.3z"/>
		<path class="st2" d="M288.8,128.3V50.9h15.6V78c3.9-3.9,8.4-5.9,13.5-5.9c3.3,0,5.8,1.2,7.5,3.6s2.6,5.5,2.6,9.2v43.4h-15.6v-41
			c0-1.4-0.2-2.4-0.7-3.1c-0.4-0.7-1.2-1-2.4-1c-1.4,0-3,0.7-4.9,2v43.1L288.8,128.3L288.8,128.3z"/>
		<path class="st2" d="M355.5,129.3c-6.1,0-10.8-1.6-14.1-4.9c-3.3-3.3-5-7.9-5-13.8V90.7c0-5.9,1.7-10.5,5-13.8s8.1-4.9,14.1-4.9
			c6.1,0,10.7,1.6,13.8,4.7c3.1,3.2,4.6,7.8,4.6,13.9v10.9h-22.1v9.7c0,2.2,0.3,3.9,0.8,5.1c0.6,1.1,1.5,1.7,2.8,1.7
			c2.6,0,3.9-1.8,3.9-5.4V109h14.5v3.2c0,5.5-1.6,9.7-4.8,12.6C365.8,127.8,361.3,129.3,355.5,129.3z M351.8,94.3h7.6v-5.5
			c0-2.1-0.3-3.5-1-4.4s-1.7-1.3-2.9-1.3c-1.2,0-2.1,0.5-2.7,1.5s-0.9,2.7-0.9,5.1v4.6H351.8z"/>
		<path class="st2" d="M382.3,128.3V73h15.3v4.5c3.7-3.7,8.1-5.5,13.2-5.5c2.2,0,4.1,0.6,5.7,1.7s2.9,2.7,3.7,4.9
			c3.9-4.4,8.6-6.5,14.1-6.5c3.2,0,5.8,1.2,7.7,3.5c1.9,2.4,2.9,5.6,2.9,9.8v42.9h-15.3V86.9c0-1.5-0.3-2.6-0.8-3.3
			c-0.5-0.7-1.4-1-2.5-0.9c-1.7,0.1-3.4,0.7-5.1,2v0.7v42.9H406V86.9c0-1.5-0.3-2.6-0.8-3.3c-0.5-0.7-1.4-1-2.5-1
			c-1.6,0.1-3.3,0.8-5.2,2.1v43.5h-15.2V128.3z"/>
		<path class="st2" d="M472.3,129.3c-6.1,0-10.8-1.6-14.1-4.9c-3.3-3.3-5-7.9-5-13.8V90.7c0-5.9,1.7-10.5,5-13.8s8.1-4.9,14.1-4.9
			c6.1,0,10.7,1.6,13.8,4.7c3.1,3.2,4.6,7.8,4.6,13.9v10.9h-22.1v9.7c0,2.2,0.3,3.9,0.8,5.1c0.6,1.1,1.5,1.7,2.8,1.7
			c2.6,0,3.9-1.8,3.9-5.4V109h14.5v3.2c0,5.5-1.6,9.7-4.8,12.6C482.7,127.8,478.1,129.3,472.3,129.3z M468.6,94.3h7.6v-5.5
			c0-2.1-0.3-3.5-1-4.4s-1.7-1.3-2.9-1.3c-1.2,0-2.1,0.5-2.7,1.5s-0.9,2.7-0.9,5.1v4.6H468.6z"/>
		<path class="st2" d="M515.4,129.3c-4.7,0-8.6-1.1-11.7-3.3s-5.6-5.7-7.5-10.6l10.8-4.7c1.1,2.6,2.3,4.6,3.7,6.1c1.3,1.3,2.6,2,4,2
			c0.2,0,0.3,0,0.5,0c1-0.1,1.8-0.4,2.4-1.1s1-1.6,0.9-2.6c0-0.5-0.2-1.1-0.6-1.7c-0.4-0.6-1-1.4-2-2.3s-1.7-1.6-2.1-1.9
			c-0.4-0.3-1.3-1.1-2.7-2.3l-4.3-3.7c-6.3-5.3-9.4-10.5-9.4-15.5c0-3,0.8-5.7,2.4-8.1s3.6-4.2,6.2-5.4c2.6-1.3,5.4-1.9,8.4-1.9
			c4.5,0,8.3,1.2,11.3,3.7s5.2,6,6.4,10.5l-10,4.5c-0.6-2.1-1.5-3.9-2.7-5.5s-2.5-2.4-4-2.5c-0.1,0-0.1,0-0.1,0
			c-1.1,0-2,0.3-2.6,0.9c-0.7,0.6-1,1.4-1.1,2.3c-0.1,1.5,2.1,4.1,6.6,7.9c0.4,0.3,0.7,0.6,0.8,0.7l4.2,3.7c1.6,1.4,2.8,2.5,3.6,3.3
			s1.8,1.9,2.9,3.3c1.2,1.4,2,2.8,2.5,4.3s0.8,3,0.8,4.7c0,3.1-0.8,5.9-2.5,8.2c-1.7,2.3-3.8,4.1-6.5,5.2
			C521.3,128.6,518.5,129.3,515.4,129.3z"/>
		<path class="st2" d="M564.9,128.3V50.9h20.2c2.9,0,5.5,0.1,7.7,0.4s4.5,0.9,6.7,1.8s4.1,2,5.5,3.5c1.4,1.4,2.6,3.4,3.5,5.9
			c0.8,2.3,1.2,5,1.2,8c0,0.2,0,0.4,0,0.7c-0.1,9-3.9,14.2-11.3,15.5c4.4,0.6,7.8,2.5,10.2,5.6s3.5,7.5,3.6,13c0,0.2,0,0.4,0,0.5
			c0,7.6-2,13.2-5.9,16.8c-4,3.7-9.9,5.6-17.5,5.6h-23.9V128.3z M582,81.8h3.3c3.7,0,6.2-0.8,7.5-2.5c1.3-1.6,2-4.3,2-7.8
			c0-6.1-3.3-9.1-10-9.1H582V81.8z M582,116.3h3.6c3.7,0,6.3-0.9,7.8-2.7s2.2-4.7,2.2-8.5c0-4.4-0.8-7.4-2.3-9.2s-4.2-2.7-8-2.7H582
			V116.3z"/>
		<path class="st2" d="M652.6,124.6c-3.4,3.1-8.2,4.7-14.2,4.7s-10.8-1.6-14.1-4.7s-5.1-7.6-5.1-13.5V90.2c0-5.9,1.7-10.4,5.1-13.5
			s8.1-4.6,14.1-4.6s10.8,1.6,14.2,4.7s5.2,7.6,5.2,13.5v20.9C657.8,117,656.1,121.5,652.6,124.6z M638.4,118.8
			c1.5,0,2.5-0.6,3.1-1.7s0.9-2.8,0.9-5v-23c0-2.2-0.3-3.9-0.9-5c-0.6-1.1-1.6-1.7-3.1-1.7c-1.4,0-2.4,0.6-3,1.7s-0.9,2.8-0.9,5v23
			c0,2.1,0.3,3.8,0.9,4.9C636,118.2,637,118.8,638.4,118.8z"/>
		<path class="st2" d="M698.8,124.6c-3.4,3.1-8.2,4.7-14.2,4.7s-10.8-1.6-14.1-4.7c-3.4-3.1-5.1-7.6-5.1-13.5V90.2
			c0-5.9,1.7-10.4,5.1-13.5c3.4-3.1,8.1-4.6,14.1-4.6s10.8,1.6,14.2,4.7s5.2,7.6,5.2,13.5v20.9C704,117,702.2,121.5,698.8,124.6z
			 M684.6,118.8c1.5,0,2.5-0.6,3.1-1.7s0.9-2.8,0.9-5v-23c0-2.2-0.3-3.9-0.9-5c-0.6-1.1-1.6-1.7-3.1-1.7c-1.4,0-2.4,0.6-3,1.7
			s-0.9,2.8-0.9,5v23c0,2.1,0.3,3.8,0.9,4.9C682.1,118.2,683.2,118.8,684.6,118.8z"/>
		<path class="st2" d="M728.3,128.9c-1.7-0.1-3.3-0.3-4.6-0.7s-2.6-1-3.5-1.6c-1-0.7-1.8-1.5-2.5-2.5s-1.3-2-1.7-3.1s-0.8-2.3-1-3.7
			c-0.2-1.4-0.4-2.7-0.5-4s-0.1-2.7-0.1-4.4V83.2h-5.3V73h5.3V56.3h15.7V73h7.9v10.2h-7.9v28.6c0,2.9,1.7,4.4,5,4.5
			c0.4,0,0.9,0,1.4,0s0.9-0.1,1.3-0.1c0.3,0,0.7-0.1,1-0.2s0.5-0.1,0.5-0.1v12.3c-3.3,0.6-6.4,0.8-9.2,0.8
			C729.3,129,728.8,129,728.3,128.9z"/>
		<path class="st2" d="M762.6,129.3c-4.7,0-8.6-1.1-11.7-3.3s-5.6-5.7-7.5-10.6l10.8-4.7c1.1,2.6,2.3,4.6,3.7,6.1c1.3,1.3,2.6,2,4,2
			c0.2,0,0.3,0,0.5,0c1-0.1,1.8-0.4,2.4-1.1s1-1.6,0.9-2.6c0-0.5-0.2-1.1-0.6-1.7c-0.4-0.6-1-1.4-2-2.3s-1.7-1.6-2.1-1.9
			c-0.4-0.3-1.3-1.1-2.7-2.3L754,103c-6.3-5.3-9.4-10.5-9.4-15.5c0-3,0.8-5.7,2.4-8.1c1.6-2.4,3.6-4.2,6.2-5.4s5.4-1.9,8.4-1.9
			c4.5,0,8.3,1.2,11.3,3.7s5.2,6,6.4,10.5l-10,4.7c-0.6-2.1-1.5-3.9-2.7-5.5s-2.5-2.4-4-2.5c-0.1,0-0.1,0-0.1,0
			c-1.1,0-2,0.3-2.6,0.9c-0.7,0.6-1,1.4-1.1,2.3c-0.1,1.5,2.1,4.1,6.6,7.9c0.4,0.3,0.7,0.6,0.8,0.7l4.2,3.7c1.6,1.4,2.8,2.5,3.6,3.3
			s1.8,1.9,2.9,3.3c1.2,1.4,2,2.8,2.5,4.3s0.8,3,0.8,4.7c0,3.1-0.8,5.9-2.5,8.2c-1.7,2.3-3.8,4.1-6.5,5.2
			C768.6,128.7,765.7,129.3,762.6,129.3z"/>
		<path class="st2" d="M802.4,128.9c-1.7-0.1-3.3-0.3-4.6-0.7c-1.4-0.4-2.6-1-3.5-1.6c-1-0.7-1.8-1.5-2.5-2.5s-1.3-2-1.7-3.1
			s-0.8-2.3-1-3.7s-0.4-2.7-0.5-4s-0.1-2.7-0.1-4.4V83.2h-5.3V73h5.3V56.3h15.7V73h7.9v10.2h-7.9v28.6c0,2.9,1.7,4.4,5,4.5
			c0.4,0,0.9,0,1.4,0s0.9-0.1,1.3-0.1c0.3,0,0.7-0.1,1-0.2s0.5-0.1,0.5-0.1v12.3c-3.3,0.6-6.4,0.8-9.2,0.8
			C803.5,129,803,129,802.4,128.9z"/>
		<path class="st2" d="M820.7,128.3V73h15.6v9.2c3.4-6.6,7.1-9.9,11.1-9.9c0.6,0,1.3,0.1,2.2,0.4v13.8c-0.9-0.2-1.7-0.3-2.6-0.3
			c-4.3,0.2-7.8,2.4-10.7,6.7v35.4L820.7,128.3L820.7,128.3z"/>
		<path class="st2" d="M867.1,129.3c-3.9-0.1-7-1.5-9.4-4.2c-2.3-2.7-3.5-5.8-3.5-9.3c0-1.8,0.2-3.5,0.7-5.1s1-2.9,1.6-4.1
			s1.5-2.3,2.7-3.4s2.2-2,3.1-2.6c0.9-0.7,2.2-1.4,3.7-2.1c1.5-0.8,2.8-1.3,3.7-1.7c0.9-0.4,2.2-0.9,3.8-1.5s2.7-1,3.4-1.3v-5.5
			c0-1.6-0.2-2.8-0.7-3.6s-1.3-1.3-2.6-1.3c-2.1,0-3.2,1.5-3.4,4.4l-0.4,4.1l-14.6-0.6c0-0.1,0-0.4,0-0.9s0-0.8,0-0.9
			c0.5-6,2.3-10.5,5.6-13.3c3.3-2.9,8-4.3,14.1-4.3c5.4,0,9.6,1.5,12.4,4.5c2.8,3,4.3,7,4.3,12.1v25.7c0,3.5,0.3,8.2,1,13.9H879
			c-0.8-4.5-1.2-7.1-1.3-7.8c-0.7,2.5-2,4.6-3.8,6.3C872.1,128.4,869.8,129.3,867.1,129.3z M872.7,118.5c0.7,0,1.5-0.3,2.3-0.8
			s1.4-1.1,1.9-1.8v-15.1c-2.5,1.2-4.5,3-6.1,5.3s-2.4,4.5-2.4,6.6c0,1.8,0.4,3.2,1.2,4.3C870.4,118,871.5,118.5,872.7,118.5z"/>
		<path class="st2" d="M901.2,146.5V73h15.6v4.1c3.8-3.3,7.6-5,11.5-5c0.2,0,0.4,0,0.5,0c4,0.1,6.9,1.7,8.9,4.8
			c1.9,3,2.9,6.9,2.9,11.6V112c0,5.3-1,9.5-3.2,12.6c-2.1,3.1-5.1,4.7-9,4.7s-7.7-1.7-11.7-5.1v22.4h-15.5V146.5z M921,119.1
			C921,119.1,921.1,119.1,921,119.1c1.4,0,2.4-0.6,3-1.7c0.6-1.2,0.9-2.7,1-4.5V87.2c0-1.7-0.3-3.1-1-4.2c-0.6-1-1.5-1.5-2.7-1.5
			c-0.1,0-0.3,0-0.4,0c-1.2,0.1-2.5,0.7-4.1,1.8v34.3C918.3,118.6,919.7,119.1,921,119.1z"/>
	</g>
</g>
<g id="Capa_3">
	<g>
		<g>
			<circle class="st6" cx="128.5" cy="90" r="77.5"/>
		</g>
	</g>
	<rect x="101.2" y="50.9" class="st7" width="56.4" height="78.5"/>
	<g class="st8">
		<path class="st5" d="M129.1,129.3c-4.3,0-8-0.6-11.1-1.8c-3-1.2-5.5-3-7.2-5.3c-1.8-2.3-3-5-3.8-8.1c-0.8-3-1.2-6.6-1.2-10.7V75.9
			c0-4.2,0.4-7.8,1.2-10.9c0.8-3.1,2-5.8,3.8-8.1s4.2-4.1,7.2-5.2c3-1.2,6.7-1.8,11.1-1.8c4.2,0,7.7,0.5,10.7,1.6
			c2.9,1.1,5.2,2.6,6.9,4.7c1.7,2.1,2.9,4.4,3.6,7c0.7,2.6,1.1,5.6,1.1,9.1V79h-16.7v-7.8c0-1.2,0-2.1,0-2.8c0-0.6-0.1-1.4-0.3-2.4
			s-0.5-1.7-0.8-2.2c-0.4-0.5-0.9-0.9-1.7-1.3c-0.7-0.4-1.6-0.6-2.7-0.6c-1.1,0-2,0.2-2.7,0.6c-0.7,0.4-1.3,0.9-1.7,1.4
			c-0.4,0.5-0.7,1.3-0.9,2.2c-0.2,0.9-0.4,1.8-0.4,2.6c0,0.8-0.1,1.7-0.1,2.9v36.1c0,3.1,0.4,5.5,1.2,7.1c0.8,1.6,2.3,2.5,4.6,2.5
			c1,0,1.9-0.2,2.6-0.6c0.7-0.4,1.3-0.8,1.7-1.4c0.4-0.5,0.7-1.3,0.9-2.2c0.2-1,0.3-1.8,0.4-2.5c0-0.7,0-1.7,0-2.8v-8.1h16.7v6.7
			c0,2.8-0.2,5.3-0.7,7.5c-0.4,2.2-1.2,4.3-2.2,6.3s-2.4,3.6-4.1,5c-1.7,1.3-3.8,2.4-6.4,3.2C135.5,129,132.5,129.3,129.1,129.3z"/>
	</g>
	<path class="st7" d="M291.7,56.3c1.9-0.5,3.9,0.1,5.1,1.7c3.4,0.4,6.7,0.6,9.7,0.7c11.2,0.7,23.3,0.2,33.8,4.5
		c6.8-0.6,13.7-1.2,20.5-1.8c0.6-0.3,1.3-0.5,2.2-0.5c1.1,0,2.1,0,3.2,0c7.5-0.6,15-1.3,22.4-2.3c1.8-0.2,3.6-0.5,5.5-0.7
		c8.3-3.6,17.5-5.7,26.7-7.1H287c0,0.7,0,1.5,0,2.2C289,53.2,291,54.3,291.7,56.3z"/>
	<path class="st7" d="M416.9,93.2c0.3-0.5,0.7-0.9,1.3-1.2c-0.6,0-1.1,0.1-1.7,0.1c-0.7,0.5-1.5,0.8-2.4,0.9c0,0-0.1,0-0.1,0
		c0,0.2-0.1,0.4-0.1,0.6c1-0.1,2-0.3,2.9-0.4C416.7,93.2,416.8,93.2,416.9,93.2z"/>
	<path class="st7" d="M371.1,72.4c4.9,1.3,9.9,2.3,15,3.1c-1.2-0.6-2.4-1.3-3.6-2.1c-0.9-0.6-1.5-1.3-1.9-2.1
		c-4.7-0.1-9.4-0.2-14.1-0.2C368,71.5,369.6,72,371.1,72.4z"/>
	<path class="st7" d="M469.6,71.9c11-2,22.5-2,33.4-2.9c1.5-0.1,2.6,0.4,3.5,1.3c0.3,0,0.5-0.1,0.8-0.1c6.1-1.9,12.4-3.3,18.4-5
		c2.8-0.8,4.8,0.6,5.7,2.6c2.4-0.3,4.8-0.5,7.1-0.7c8.9-6.3,20.9-7.8,31.3-8.9c1.7-0.2,3.5-0.3,5.2-0.4c-2-1.7-2.8-4.8-1.1-6.8
		h-74.2c0.6,0.1,1.1,0.2,1.7,0.3c5.4,0.9,4,8,0,9.6c-6.3,2.5-13.1,4-20,4.8c-0.5,0.5-1.2,0.9-2,1.2c-3.2,0.9-6.4,1.6-9.6,2.1
		C470,69.9,469.9,71,469.6,71.9z"/>
	<path class="st7" d="M570.5,95.7c1.6-1.1,3.2-2.1,5-2.8c-1.3,0-2.7,0-4-0.1c-0.5,0.5-1.2,0.8-2.1,1c-0.8,0.2-1.5,0.3-2.3,0.5
		c1.7,2.7,1.1,6.9-2.7,7.5c-0.2,0-0.4,0.1-0.6,0.1c0.7,2,0.3,4.3-2.3,5.4c-0.4,0.2-0.8,0.3-1.2,0.5c0,0,0,0,0,0c-0.1,0-0.1,0-0.2,0
		c-1.2,0.5-2.5,0.8-3.7,1.1c5.6-0.2,11.3-0.3,16.9-0.6c0.3-0.9,0.8-1.8,1.6-2.4c-1.1-0.4-2.2-0.8-3.2-1.2
		C567.6,103.1,566.8,98.4,570.5,95.7z"/>
	<path class="st7" d="M277.4,91.4c1.2-1.1,2.4-2.1,3.8-3c-1.6-0.7-3-2.1-3.2-4.4c0,0,0-0.1,0-0.1c-1.4-0.2-2.7-1-3.3-2.4
		c-1.7-3.7-3.1-7.6-4.6-11.4c-0.6,6.8-1.1,13.7-1.8,20.5c2.2,0.5,4.4,0.6,6.7,0.3C275.9,90.9,276.7,91.1,277.4,91.4z"/>
	<path class="st7" d="M293.4,82.9c-0.6-0.7-1-1.5-1.3-2.3c-0.4,0.3-0.8,0.6-1.2,0.8c-0.3,1.5-1.5,2.6-3,3.1c0,0.1,0,0.2-0.1,0.3
		C289.7,84.1,291.5,83.5,293.4,82.9z"/>
	<path class="st7" d="M302.1,72.9c-0.2-1.7,0.5-3.4,2.3-4.3c-1.6-0.1-3.3-0.2-4.9-0.4c-0.9-0.1-1.8-0.2-2.7-0.3
		c-0.5,2.6-1.2,5.1-2,7.7C297.2,74.4,299.6,73.6,302.1,72.9z"/>
	<path class="st7" d="M882,80.1c-4-0.4-8-0.6-12.1-0.6c1.1,0.2,2.3,0.5,3.4,0.7c0.7,0.2,1.4,0.5,1.9,1
		C877.5,80.9,879.8,80.6,882,80.1z"/>
	<path class="st7" d="M242.2,79.7C242.2,79.7,242.2,79.7,242.2,79.7l3-21c0.3-2.4,1.9-3.5,3.6-3.6c0.8-1.1,2.2-1.8,3.6-2
		c0.2-0.7,0.3-1.5,0.5-2.2h-11.8v29C241.5,79.8,241.9,79.8,242.2,79.7z"/>
	<path class="st7" d="M644.3,122.8c-1.4,0.3-2.9,0.6-4.3,0.9c3.2,0.1,6.4,0.1,9.5-0.3c-0.1-0.1-0.1-0.2-0.2-0.2
		c-1.6-0.1-3.1-0.3-4.7-0.4C644.5,122.8,644.4,122.8,644.3,122.8z"/>
	<path class="st7" d="M562.6,122.2c8-0.6,16.1-1.3,24.1-1.4c-0.8-0.7-1.3-1.7-1.6-2.8c-7.5,0.4-15,0.6-22.5,0.9
		C563,120,563,121.1,562.6,122.2z"/>
	<path class="st7" d="M696.3,122.8c-6.3,0.5-12.6,0.9-18.9,1.2c0.6,0.7,1.1,1.4,1.5,2.1c2.6,0,5.3-0.2,7.9,0.2
		c0.7,0.1,1.4,0.3,2,0.6c0.3,0.1,0.5,0.2,0.7,0.4c0,0,0,0,0,0c0.2,0.1,0.4,0.3,0.6,0.5c0.1,0.1,0.2,0.2,0.2,0.2c0,0,0.1,0.1,0.1,0.1
		c0.1,0.1,0.1,0.1,0.2,0.2c1.1,0.1,2,0.5,2.8,1.2h3.5C696.5,127.4,696.3,125,696.3,122.8z"/>
	<path class="st7" d="M667,127.8c-0.1-0.2-0.3-0.3-0.4-0.5c-0.6-0.9-0.8-2.1-0.6-3.2c-0.3,0-0.7,0-1,0c0.3,2-0.8,4.2-2.5,5.2
		c0,0-0.1,0.1-0.1,0.1h4.7C667,128.9,667,128.4,667,127.8z"/>
	<path class="st7" d="M637.9,50.9c0.4,0.5,0.6,1.1,0.8,1.7c4.6-0.2,9.2-0.2,13.8-0.4c1.5-0.1,3.1-0.2,4.6-0.2
		c4.3-0.2,5.7,4.1,4.3,7.1c2.3,0.3,4.7,0.7,7,1.1c1.7,0.3,2.8,1.5,3.3,2.9c7.5,0.6,14.9,1.4,22.1,2.4c11.1-0.9,22.4-0.5,33.3-0.5
		c2,0,3.4,1.1,4.2,2.5c5.6-0.5,11.2-1.1,16.8-1.5c1.4-0.1,2.5,0.3,3.3,0.9c13.5-0.2,27-0.8,40.3-2.4c0.3-0.3,0.5-0.6,0.9-0.8
		c5-3.8,11.6-5.5,18.1-5.7c0.8-0.3,1.6-0.2,2.4,0c3.2,0.1,6.4,0.5,9.4,1.2c4.2,1,4.6,6.6,1.6,8.9c1.4,0.1,2.8,0.1,4.2,0.1
		c14.4-3.5,30.4-2.6,44.6-5c4.4-0.7,7,3.6,6.1,6.7c7.9,0.5,15.8,1.5,23.6,3.3c4.4,1,4.6,6.9,1.2,9.1c-9.9,6.5-22.5,8.7-34.7,9.4
		c0.1,0.8,0,1.5-0.2,2.2c2.5,0,4.9,0,7.4,0c3.1,0,4.7,2.3,4.8,4.7c3.5,0.4,7,0.8,10.5,1.5c4.8,0.9,4.7,8.6,0,9.6
		c-8.1,1.8-18.3,3.5-26.5,0.5c-0.3,0.1-0.6,0.3-0.9,0.3c0,0.2,0,0.4,0,0.6c6.7,0.5,13.4,1.1,20.1,1.8c6.5,0.7,6.4,9.3,0,10
		c-7.2,0.8-14.4,1.4-21.6,1.8c1.3,1.2,2,2.8,1.6,4.6h83V50.9H637.9z"/>
	<path class="st7" d="M748.7,129.3c-3-0.2-6,0-9-0.1c0,0.1,0.1,0.1,0.1,0.2h10.6C749.8,129.4,749.2,129.3,748.7,129.3z"/>
	<path class="st7" d="M247,121.5c-2.3-1.4-4.4-3.3-5.8-5.6v13.5h5.6C244.6,127.7,244.7,123.7,247,121.5z"/>
	<path class="st7" d="M474.8,129.4h21.9c-0.3-0.1-0.5-0.3-0.7-0.5c-5.4,0.6-11.1,0.2-15.8-0.3c-1.7-0.2-3.5-0.4-5.2-0.6
		C474.9,128.5,474.9,128.9,474.8,129.4z"/>
	<path class="st7" d="M427.3,122.4c-1.7-0.1-3.5-0.2-5.2-0.4c0.2,1.3-0.2,2.8-1.5,4c-1.6,1.5-3.5,2.6-5.6,3.3h10.7
		C424.6,127.3,425.2,124.1,427.3,122.4z"/>
	<path class="st7" d="M401.4,124.5c1.8-1.5,3.8-2.5,6.1-3.2c-7-0.3-13.9-0.5-20.9-0.7C391.1,123.1,395.7,125.1,401.4,124.5z"/>
	<path class="st7" d="M381.5,129.4c-1.8-1.1-3.6-2.2-5.4-3.1c-1.8-0.9-2.5-2.4-2.5-3.9c-0.4,0.1-0.8,0.1-1.3,0.2
		c1.9,1.9,2.3,5.1,0.6,6.9H381.5z"/>
	<path class="st7" d="M336.3,126.3c-3.5,0.2-6.9,0.4-10.3,0.5c0.3,0.5,0.5,1.1,0.6,1.6c0.1,0,0.1,0,0.2,0c1.2,0,2.2,0.4,3,1h8.1
		C337,128.5,336.5,127.4,336.3,126.3z"/>
	<path class="st7" d="M242.9,90.6c-0.5-0.2-1.1-0.3-1.7-0.5v7.2c0.9-0.1,1.8-0.3,2.7-0.4C242.2,95.5,241.8,92.8,242.9,90.6z"/>
	<g class="st8">
		<path class="st6" d="M399.6,124.6c0.7-1.1,1.3-2.3,1.8-3.6c-5-0.2-9.9-0.4-14.9-0.5C390.6,122.8,394.7,124.7,399.6,124.6z"/>
		<path class="st6" d="M407.4,121.3c-1.9-0.1-3.8-0.2-5.7-0.2c0.1,0.6,0.2,1.5,0.5,2.8C403.7,122.7,405.5,121.9,407.4,121.3z"/>
		<path class="st6" d="M685.8,123.5c-2.8,0.2-5.6,0.3-8.4,0.4c0.6,0.7,1.1,1.4,1.6,2.1c2.6,0,5.2-0.2,7.8,0.2
			C686.6,125.3,686.3,124.3,685.8,123.5z"/>
	</g>
</g>
<g>
	<g>
		<path class="st6" d="M303.2,52h17.2l27.7,57.1l-1.2,1.3V52h13.4v74.5H343l-27.6-56.2l1.2-1.3v57.6h-13.4V52z"/>
		<path class="st6" d="M384.7,124.6c-3.4-1.8-6-4.5-7.8-7.9c-1.8-3.5-2.7-7.6-2.7-12.5v-8.7c0-4.8,0.9-8.9,2.7-12.4
			c1.8-3.4,4.4-6,7.8-7.8c3.4-1.8,7.6-2.7,12.4-2.7c4.9,0,9,0.9,12.4,2.7c3.4,1.8,6,4.4,7.8,7.8c1.8,3.4,2.7,7.6,2.7,12.4v8.8
			c0,4.9-0.9,9-2.7,12.4c-1.8,3.4-4.4,6.1-7.8,7.9c-3.4,1.8-7.6,2.7-12.4,2.7C392.3,127.3,388.1,126.4,384.7,124.6z M403.7,111.3
			c1.6-1.7,2.4-4,2.4-7v-8.8c0-3-0.8-5.3-2.4-6.9c-1.6-1.6-3.8-2.5-6.6-2.5c-2.8,0-5,0.8-6.5,2.5c-1.6,1.6-2.3,3.9-2.3,6.9v8.8
			c0,3,0.8,5.3,2.3,7c1.5,1.7,3.7,2.5,6.6,2.5C399.9,113.8,402.1,113,403.7,111.3z"/>
		<path class="st6" d="M427.3,73.4h13.2l17.9,46.2l-8.9,11.3L427.3,73.4z M476.4,73.4L452.8,139c-0.9,2.4-2,4.3-3.3,5.8
			c-1.3,1.4-2.9,2.4-4.9,3.1c-1.9,0.6-4.3,0.9-7.2,0.9h-3.1v-13.6h3.1c1.5,0,2.8-0.3,3.8-1c1-0.7,1.8-1.8,2.3-3.3l19.7-57.5H476.4z"
			/>
		<path class="st6" d="M484.6,52h14v74.5h-14V52z M491.1,84.1h23.8c1.7,0,3.2-0.4,4.4-1.2c1.3-0.8,2.3-1.9,3-3.3
			c0.7-1.4,1.1-3,1.1-4.8c0-1.8-0.4-3.5-1.1-4.9c-0.7-1.4-1.7-2.5-3-3.3c-1.3-0.8-2.8-1.2-4.5-1.2h-23.8V52h23.5
			c4.6,0,8.7,0.9,12.3,2.8c3.5,1.9,6.3,4.6,8.2,8c1.9,3.5,2.9,7.5,2.9,12s-1,8.5-2.9,12c-1.9,3.4-4.7,6.1-8.2,8
			c-3.5,1.9-7.6,2.8-12.3,2.8h-23.5V84.1z"/>
		<path class="st6" d="M550.7,123.3c-2.8-2.7-4.2-6.8-4.2-12.4c0-5.3,1.6-9.2,4.7-11.8c3.2-2.6,7.9-3.9,14.2-3.9h13.3l0.7,10.7h-14
			c-2.1,0-3.7,0.4-4.8,1.3c-1.1,0.8-1.6,2.1-1.6,3.8c0,1.7,0.7,3,2,3.9c1.3,0.8,3.3,1.3,6,1.3c3.8,0,6.6-0.4,8.4-1.3
			c1.8-0.9,2.7-2.2,2.7-4l1.1,7.7c-0.2,1.9-1.1,3.5-2.6,4.9c-1.6,1.3-3.5,2.3-5.8,3c-2.3,0.7-4.8,1-7.4,1
			C557.7,127.3,553.5,126,550.7,123.3z M578.3,92.8c0-2.5-0.8-4.4-2.5-5.7c-1.6-1.3-4-2-7-2c-2,0-3.9,0.3-5.9,1s-3.7,1.6-5.2,2.7
			l-8.7-8.6c2.1-2.4,4.9-4.3,8.4-5.7c3.5-1.3,7.3-2,11.6-2c4.6,0,8.6,0.8,11.9,2.3c3.3,1.6,5.8,3.8,7.5,6.8c1.7,3,2.6,6.5,2.6,10.7
			v34.2h-12.8V92.8z"/>
		<path class="st6" d="M604.9,73.4h15.1v53.2h-15.1V73.4z M632.3,86.6c-1-0.3-2.1-0.5-3.4-0.5c-2.8,0-5,0.9-6.6,2.7
			c-1.6,1.8-2.3,4.4-2.3,7.6l-1.1-13.8c1.5-3.2,3.4-5.6,5.7-7.4c2.3-1.8,4.9-2.6,7.7-2.6c2.2,0,4.2,0.4,6,1.1
			c1.8,0.7,3.4,1.7,4.7,3.1l-8.2,11.4C634.1,87.5,633.3,87,632.3,86.6z"/>
		<path class="st6" d="M649.7,52h14v74.5h-14V52z M656.2,107.4l24.8-34h14.9l-37.8,49.5L656.2,107.4z M668.9,99.1l11.6-7l18.1,34.5
			h-16.3L668.9,99.1z"/>
	</g>
</g>
<ellipse class="st6" cx="128.5" cy="90" rx="46.6" ry="47.5"/>
<g>
	<path class="st5" d="M103.9,65.4c0.2-0.9,0.5-1.8,0.8-2.8c0.3-1,0.7-1.9,1.2-2.8c0.5-0.8,1.2-1.5,2-2.1c0.8-0.6,1.9-0.8,3.1-0.8
		c1.2,0,2.3,0.3,3.2,1c0.9,0.7,1.8,1.3,2.5,2c0.9,0.6,1.7,1.8,2.6,3.5c0.8,1.8,1.7,4,2.5,6.6c0.9,2.6,1.8,5.5,2.8,8.8
		c1,3.3,2.1,6.7,3.3,10.3c1.2,3.6,2.6,7.3,4.1,11c1.5,3.7,3.2,7.4,5.1,10.9c0.3,0.5,0.7,1.2,1.1,1.9c0.4,0.7,0.8,1.4,1.3,2.1
		c0.4,0.6,0.8,1.2,1.2,1.6c0.4,0.4,0.6,0.7,0.8,0.7c0.1,0,0.2-0.3,0.4-0.8c0.1-0.5,0.3-1.1,0.5-1.8c0.2-0.7,0.4-1.5,0.5-2.2
		c0.2-0.8,0.4-1.4,0.5-1.8c0.6-1.6,1.4-3.4,2.1-5.4c0.8-2,1.6-4.5,2.6-7.4c0.9-2.9,2-6.3,3.1-10.3s2.4-8.7,3.7-14.1
		c0.3-1.3,0.7-2.8,1.1-4.5c0.4-1.7,0.8-3.4,1.1-5.2c0.4-1.8,0.7-3.5,0.9-5.2c0.3-1.7,0.5-3.1,0.6-4.4c0-0.2,0-0.6,0.1-1.1
		c0-0.5,0.1-1.1,0.2-1.7c0.1-0.6,0.2-1.3,0.3-2c0.1-0.7,0.3-1.3,0.5-1.9c0.2-0.6,0.5-1.1,0.8-1.4c0.3-0.4,0.8-0.6,1.2-0.6
		c0.5,0,1.1,0.1,1.8,0.2c0.7,0.1,1.3,0.3,1.9,0.6c0.6,0.9,1.2,2,1.8,3.2c0.5,1.2,0.8,2.9,0.8,5.1c0,1.3-0.1,2.9-0.4,4.8
		c-0.3,1.9-0.6,3.9-1.1,6c-0.4,2.1-0.9,4.3-1.4,6.6c-0.5,2.3-1.1,4.4-1.6,6.5c-0.5,2.1-1.1,4-1.6,5.7c-0.5,1.7-0.9,3.2-1.3,4.3
		c-0.6,2-1.3,4-1.9,6.1c-0.7,2.1-1.4,4.3-2.2,6.6c-0.8,2.3-1.7,4.8-2.6,7.3c-0.9,2.6-2,5.3-3.2,8.3c-0.5,1.3-1.1,2.7-1.8,4
		c-0.7,1.3-1.4,2.5-2.3,3.6c-0.9,1.1-1.8,1.9-2.9,2.6c-1.1,0.7-2.3,1-3.6,1c-0.8,0-1.6-0.1-2.4-0.3c-0.8-0.2-1.5-0.7-2.1-1.4
		c-2.8-3.2-5.3-6.9-7.5-11c-2.2-4.1-4.1-8.4-5.9-12.9c-1.7-4.5-3.3-9-4.6-13.6c-1.3-4.6-2.5-9-3.6-13.2l-0.3-1.2
		c-0.1-0.5-0.3-1-0.4-1.5c-0.1-0.5-0.2-0.9-0.4-1.4c-0.1-0.4-0.3-0.7-0.4-1c-0.2-0.3-0.3-0.4-0.5-0.4s-0.5,0.4-0.8,1.1
		c-0.3,0.8-0.6,1.6-0.9,2.5c-0.3,0.9-0.6,1.9-0.8,2.7c-0.3,0.9-0.4,1.5-0.5,1.7c-0.2,0.9-0.6,2.2-1.1,3.8c-0.5,1.7-1,3.5-1.6,5.6
		c-0.6,2.1-1.2,4.3-1.9,6.6c-0.7,2.3-1.4,4.6-2,6.7c-0.6,2.2-1.3,4.2-1.8,6c-0.6,1.8-1.1,3.3-1.4,4.5c-0.3,0.9-0.7,2-1.1,3.4
		c-0.4,1.4-0.9,2.8-1.3,4.2c-0.4,1.4-0.9,2.7-1.2,3.9c-0.4,1.2-0.6,1.9-0.7,2.3c-0.4,1.3-1,2.3-1.8,2.9c-0.8,0.7-1.6,1-2.4,1
		c-0.5,0-1-0.2-1.5-0.5c-0.5-0.4-1-0.8-1.4-1.3c-0.4-0.5-0.7-1.1-1-1.7c-0.3-0.6-0.4-1.1-0.4-1.6c0-0.3,0.1-0.7,0.3-1.3
		c0.2-0.6,0.4-1.6,0.8-3l1.3-5.3L103.9,65.4z"/>
</g>
</svg>
