<?xml version="1.0" encoding="utf-8"?>
<!-- Generator: Adobe Illustrator 23.0.0, SVG Export Plug-In . SVG Version: 6.00 Build 0)  -->
<svg version="1.1" id="_1" xmlns="http://www.w3.org/2000/svg" xmlns:xlink="http://www.w3.org/1999/xlink" x="0px" y="0px"
	 viewBox="0 0 1000 180" style="enable-background:new 0 0 1000 180;" xml:space="preserve">
<style type="text/css">
	.st0{display:none;}
	.st1{display:inline;}
	.st2{fill:#1E2225;}
	.st3{display:inline;fill:none;}
	.st4{display:inline;enable-background:new    ;}
	.st5{fill:#FFFFFF;}
	.st6{fill:#282C47;}
	.st7{fill:none;}
	.st8{enable-background:new    ;}
	.st9{font-family:'Impact';}
	.st10{font-size:130px;}
</style>
<g id="Capa_1" class="st0">
	<g class="st1">
		<circle class="st2" cx="127.5" cy="90.5" r="77.5"/>
	</g>
	<path class="st3" d="M100.2,51.4h56.4v78.5h-56.4L100.2,51.4z"/>
	<g class="st4">
		<path class="st5" d="M105.9,128.8V51.4h20.2c2.9,0,5.5,0.1,7.7,0.4s4.5,0.9,6.7,1.8s4.1,2,5.5,3.5c1.4,1.4,2.6,3.4,3.5,5.9
			c0.8,2.3,1.2,5,1.2,8v0.7c-0.1,9-3.9,14.2-11.3,15.5c4.4,0.6,7.8,2.5,10.2,5.6s3.5,7.5,3.6,13v0.5c0,7.6-2,13.2-5.9,16.8
			c-4,3.7-9.9,5.6-17.5,5.6h-23.9V128.8z M123,82.3h3.3c3.7,0,6.2-0.8,7.5-2.5c1.3-1.6,2-4.3,2-7.8c0-6.1-3.3-9.1-10-9.1H123V82.3z
			 M123,116.8h3.6c3.7,0,6.3-0.9,7.8-2.7s2.2-4.7,2.2-8.5c0-4.4-0.8-7.4-2.3-9.2s-4.2-2.7-8-2.7H123C123,93.7,123,116.8,123,116.8z"
			/>
	</g>
	<path class="st3" d="M240.2,51.4H946v78.5H240.2V51.4z"/>
	<g class="st4">
		<path class="st2" d="M253.1,128.8V64h-11.9V51.4H282V64h-11.8v64.7h-17.1V128.8z M287.8,128.8V51.4h15.6v27.1
			c3.9-3.9,8.4-5.9,13.5-5.9c3.3,0,5.8,1.2,7.5,3.6s2.6,5.5,2.6,9.2v43.4h-15.6v-41c0-1.4-0.2-2.4-0.7-3.1c-0.4-0.7-1.2-1-2.4-1
			c-1.4,0-3,0.7-4.9,2v43.1L287.8,128.8L287.8,128.8z M354.5,129.8c-6.1,0-10.8-1.6-14.1-4.9c-3.3-3.3-5-7.9-5-13.8V91.2
			c0-5.9,1.7-10.5,5-13.8s8.1-4.9,14.1-4.9c6.1,0,10.7,1.6,13.8,4.7c3.1,3.2,4.6,7.8,4.6,13.9V102h-22.1v9.7c0,2.2,0.3,3.9,0.8,5.1
			c0.6,1.1,1.5,1.7,2.8,1.7c2.6,0,3.9-1.8,3.9-5.4v-3.7h14.5v3.2c0,5.5-1.6,9.7-4.8,12.6C364.8,128.3,360.3,129.8,354.5,129.8
			L354.5,129.8z M350.8,94.8h7.6v-5.5c0-2.1-0.3-3.5-1-4.4s-1.7-1.3-2.9-1.3s-2.1,0.5-2.7,1.5s-0.9,2.7-0.9,5.1v4.6
			C350.9,94.8,350.8,94.8,350.8,94.8z M381.3,128.8V73.5h15.3V78c3.7-3.7,8.1-5.5,13.2-5.5c2.2,0,4.1,0.6,5.7,1.7s2.9,2.7,3.7,4.9
			c3.9-4.4,8.6-6.5,14.1-6.5c3.2,0,5.8,1.2,7.7,3.5c1.9,2.4,2.9,5.6,2.9,9.8v42.9h-15.3V87.4c0-1.5-0.3-2.6-0.8-3.3
			c-0.5-0.7-1.4-1-2.5-0.9c-1.7,0.1-3.4,0.7-5.1,2v43.6H405V87.4c0-1.5-0.3-2.6-0.8-3.3c-0.5-0.7-1.4-1-2.5-1
			c-1.6,0.1-3.3,0.8-5.2,2.1v43.5h-15.2V128.8z M471.3,129.8c-6.1,0-10.8-1.6-14.1-4.9c-3.3-3.3-5-7.9-5-13.8V91.2
			c0-5.9,1.7-10.5,5-13.8s8.1-4.9,14.1-4.9c6.1,0,10.7,1.6,13.8,4.7c3.1,3.2,4.6,7.8,4.6,13.9V102h-22.1v9.7c0,2.2,0.3,3.9,0.8,5.1
			c0.6,1.1,1.5,1.7,2.8,1.7c2.6,0,3.9-1.8,3.9-5.4v-3.7h14.5v3.2c0,5.5-1.6,9.7-4.8,12.6C481.7,128.3,477.1,129.8,471.3,129.8
			L471.3,129.8z M467.6,94.8h7.6v-5.5c0-2.1-0.3-3.5-1-4.4s-1.7-1.3-2.9-1.3s-2.1,0.5-2.7,1.5s-0.9,2.7-0.9,5.1v4.6
			C467.7,94.8,467.6,94.8,467.6,94.8z M514.4,129.8c-4.7,0-8.6-1.1-11.7-3.3s-5.6-5.7-7.5-10.6l10.8-4.7c1.1,2.6,2.3,4.6,3.7,6.1
			c1.3,1.3,2.6,2,4,2h0.5c1-0.1,1.8-0.4,2.4-1.1s1-1.6,0.9-2.6c0-0.5-0.2-1.1-0.6-1.7c-0.4-0.6-1-1.4-2-2.3s-1.7-1.6-2.1-1.9
			c-0.4-0.3-1.3-1.1-2.7-2.3l-4.3-3.7c-6.3-5.3-9.4-10.5-9.4-15.5c0-3,0.8-5.7,2.4-8.1s3.6-4.2,6.2-5.4c2.6-1.3,5.4-1.9,8.4-1.9
			c4.5,0,8.3,1.2,11.3,3.7s5.2,6,6.4,10.5L521,91.7c-0.6-2.1-1.5-3.9-2.7-5.5s-2.5-2.4-4-2.5h-0.1c-1.1,0-2,0.3-2.6,0.9
			c-0.7,0.6-1,1.4-1.1,2.3c-0.1,1.5,2.1,4.1,6.6,7.9c0.4,0.3,0.7,0.6,0.8,0.7l4.2,3.7c1.6,1.4,2.8,2.5,3.6,3.3s1.8,1.9,2.9,3.3
			c1.2,1.4,2,2.8,2.5,4.3s0.8,3,0.8,4.7c0,3.1-0.8,5.9-2.5,8.2c-1.7,2.3-3.8,4.1-6.5,5.2C520.2,129.3,517.5,129.8,514.4,129.8
			L514.4,129.8z M563.9,128.8V51.4h20.2c2.9,0,5.5,0.1,7.7,0.4s4.5,0.9,6.7,1.8s4.1,2,5.5,3.5c1.4,1.4,2.6,3.4,3.5,5.9
			c0.8,2.3,1.2,5,1.2,8v0.7c-0.1,9-3.9,14.2-11.3,15.5c4.4,0.6,7.8,2.5,10.2,5.6s3.5,7.5,3.6,13v0.5c0,7.6-2,13.2-5.9,16.8
			c-4,3.7-9.9,5.6-17.5,5.6h-23.9V128.8z M581,82.3h3.3c3.7,0,6.2-0.8,7.5-2.5c1.3-1.6,2-4.3,2-7.8c0-6.1-3.3-9.1-10-9.1H581V82.3z
			 M581,116.8h3.6c3.7,0,6.3-0.9,7.8-2.7s2.2-4.7,2.2-8.5c0-4.4-0.8-7.4-2.3-9.2s-4.2-2.7-8-2.7H581C581,93.7,581,116.8,581,116.8z
			 M651.6,125.1c-3.4,3.1-8.2,4.7-14.2,4.7s-10.8-1.6-14.1-4.7s-5.1-7.6-5.1-13.5V90.7c0-5.9,1.7-10.4,5.1-13.5s8.1-4.6,14.1-4.6
			s10.8,1.6,14.2,4.7s5.2,7.6,5.2,13.5v20.9C656.8,117.5,655.1,122,651.6,125.1z M637.4,119.3c1.5,0,2.5-0.6,3.1-1.7s0.9-2.8,0.9-5
			v-23c0-2.2-0.3-3.9-0.9-5c-0.6-1.1-1.6-1.7-3.1-1.7c-1.4,0-2.4,0.6-3,1.7s-0.9,2.8-0.9,5v23c0,2.1,0.3,3.8,0.9,4.9
			C635,118.7,636,119.3,637.4,119.3z M697.8,125.1c-3.4,3.1-8.2,4.7-14.2,4.7s-10.8-1.6-14.1-4.7c-3.4-3.1-5.1-7.6-5.1-13.5V90.7
			c0-5.9,1.7-10.4,5.1-13.5c3.4-3.1,8.1-4.6,14.1-4.6s10.8,1.6,14.2,4.7s5.2,7.6,5.2,13.5v20.9C703,117.5,701.2,122,697.8,125.1z
			 M683.6,119.3c1.5,0,2.5-0.6,3.1-1.7s0.9-2.8,0.9-5v-23c0-2.2-0.3-3.9-0.9-5c-0.6-1.1-1.6-1.7-3.1-1.7c-1.4,0-2.4,0.6-3,1.7
			s-0.9,2.8-0.9,5v23c0,2.1,0.3,3.8,0.9,4.9C681.1,118.7,682.2,119.3,683.6,119.3z M727.3,129.4c-1.7-0.1-3.3-0.3-4.6-0.7
			s-2.6-1-3.5-1.6c-1-0.7-1.8-1.5-2.5-2.5s-1.3-2-1.7-3.1s-0.8-2.3-1-3.7c-0.2-1.4-0.4-2.7-0.5-4s-0.1-2.7-0.1-4.4V83.7h-5.3V73.5
			h5.3V56.8h15.7v16.8h7.9v10.2h-7.9v28.6c0,2.9,1.7,4.4,5,4.5h1.4c0.5,0,0.9-0.1,1.3-0.1c0.3,0,0.7-0.1,1-0.2s0.5-0.1,0.5-0.1v12.3
			c-3.3,0.6-6.4,0.8-9.2,0.8C728.3,129.5,727.8,129.5,727.3,129.4L727.3,129.4z M761.6,129.8c-4.7,0-8.6-1.1-11.7-3.3
			s-5.6-5.7-7.5-10.6l10.8-4.7c1.1,2.6,2.3,4.6,3.7,6.1c1.3,1.3,2.6,2,4,2h0.5c1-0.1,1.8-0.4,2.4-1.1s1-1.6,0.9-2.6
			c0-0.5-0.2-1.1-0.6-1.7c-0.4-0.6-1-1.4-2-2.3s-1.7-1.6-2.1-1.9c-0.4-0.3-1.3-1.1-2.7-2.3l-4.3-3.7c-6.3-5.3-9.4-10.5-9.4-15.5
			c0-3,0.8-5.7,2.4-8.1c1.6-2.4,3.6-4.2,6.2-5.4s5.4-1.9,8.4-1.9c4.5,0,8.3,1.2,11.3,3.7s5.2,6,6.4,10.5l-10.1,4.7
			c-0.6-2.1-1.5-3.9-2.7-5.5s-2.5-2.4-4-2.5h-0.1c-1.1,0-2,0.3-2.6,0.9c-0.7,0.6-1,1.4-1.1,2.3c-0.1,1.5,2.1,4.1,6.6,7.9
			c0.4,0.3,0.7,0.6,0.8,0.7l4.2,3.7c1.6,1.4,2.8,2.5,3.6,3.3s1.8,1.9,2.9,3.3c1.2,1.4,2,2.8,2.5,4.3s0.8,3,0.8,4.7
			c0,3.1-0.8,5.9-2.5,8.2c-1.7,2.3-3.8,4.1-6.5,5.2C767.6,129.2,764.7,129.8,761.6,129.8L761.6,129.8z M801.4,129.4
			c-1.7-0.1-3.3-0.3-4.6-0.7c-1.4-0.4-2.6-1-3.5-1.6c-1-0.7-1.8-1.5-2.5-2.5s-1.3-2-1.7-3.1s-0.8-2.3-1-3.7s-0.4-2.7-0.5-4
			s-0.1-2.7-0.1-4.4V83.7h-5.3V73.5h5.3V56.8h15.7v16.8h7.9v10.2h-7.9v28.6c0,2.9,1.7,4.4,5,4.5h1.4c0.5,0,0.9-0.1,1.3-0.1
			c0.3,0,0.7-0.1,1-0.2s0.5-0.1,0.5-0.1v12.3c-3.3,0.6-6.4,0.8-9.2,0.8C802.5,129.5,802,129.5,801.4,129.4L801.4,129.4z
			 M819.7,128.8V73.5h15.6v9.2c3.4-6.6,7.1-9.9,11.1-9.9c0.6,0,1.3,0.1,2.2,0.4V87c-0.9-0.2-1.7-0.3-2.6-0.3
			c-4.3,0.2-7.8,2.4-10.7,6.7v35.4L819.7,128.8L819.7,128.8z M866.1,129.8c-3.9-0.1-7-1.5-9.4-4.2c-2.3-2.7-3.5-5.8-3.5-9.3
			c0-1.8,0.2-3.5,0.7-5.1s1-2.9,1.6-4.1s1.5-2.3,2.7-3.4s2.2-2,3.1-2.6c0.9-0.7,2.2-1.4,3.7-2.1c1.5-0.8,2.8-1.3,3.7-1.7
			c0.9-0.4,2.2-0.9,3.8-1.5s2.7-1,3.4-1.3V89c0-1.6-0.2-2.8-0.7-3.6s-1.3-1.3-2.6-1.3c-2.1,0-3.2,1.5-3.4,4.4l-0.4,4.1L854.4,92
			v-0.9v-0.9c0.5-6,2.3-10.5,5.6-13.3c3.3-2.9,8-4.3,14.1-4.3c5.4,0,9.6,1.5,12.4,4.5c2.8,3,4.3,7,4.3,12.1v25.7
			c0,3.5,0.3,8.2,1,13.9H878c-0.8-4.5-1.2-7.1-1.3-7.8c-0.7,2.5-2,4.6-3.8,6.3C871.1,128.9,868.8,129.8,866.1,129.8L866.1,129.8z
			 M871.7,119c0.7,0,1.5-0.3,2.3-0.8s1.4-1.1,1.9-1.8v-15.1c-2.5,1.2-4.5,3-6.1,5.3s-2.4,4.5-2.4,6.6c0,1.8,0.4,3.2,1.2,4.3
			C869.4,118.5,870.5,119,871.7,119z M900.2,147V73.5h15.6v4.1c3.8-3.3,7.6-5,11.5-5h0.5c4,0.1,6.9,1.7,8.9,4.8
			c1.9,3,2.9,6.9,2.9,11.6v23.6c0,5.3-1,9.5-3.2,12.6c-2.1,3.1-5.1,4.7-9,4.7s-7.7-1.7-11.7-5.1V147H900.2z M920,119.6
			C920,119.6,920.1,119.6,920,119.6c1.4,0,2.4-0.6,3-1.7c0.6-1.2,0.9-2.7,1-4.5V87.7c0-1.7-0.3-3.1-1-4.2c-0.6-1-1.5-1.5-2.7-1.5
			h-0.4c-1.2,0.1-2.5,0.7-4.1,1.8v34.3C917.3,119.1,918.7,119.6,920,119.6z"/>
	</g>
</g>
<g id="Capa_2" class="st0">
	<g class="st1">
		<circle class="st2" cx="128.5" cy="90" r="77.5"/>
	</g>
	<path class="st3" d="M101.2,50.9h56.4v78.5h-56.4L101.2,50.9z"/>
	<g class="st4">
		<path class="st5" d="M106.9,128.3V50.9h20.2c2.9,0,5.5,0.1,7.7,0.4s4.5,0.9,6.7,1.8s4.1,2,5.5,3.5c1.4,1.4,2.6,3.4,3.5,5.9
			c0.8,2.3,1.2,5,1.2,8v0.7c-0.1,9-3.9,14.2-11.3,15.5c4.4,0.6,7.8,2.5,10.2,5.6s3.5,7.5,3.6,13v0.5c0,7.6-2,13.2-5.9,16.8
			c-4,3.7-9.9,5.6-17.5,5.6h-23.9V128.3z M124,81.8h3.3c3.7,0,6.2-0.8,7.5-2.5c1.3-1.6,2-4.3,2-7.8c0-6.1-3.3-9.1-10-9.1H124V81.8z
			 M124,116.3h3.6c3.7,0,6.3-0.9,7.8-2.7s2.2-4.7,2.2-8.5c0-4.4-0.8-7.4-2.3-9.2s-4.2-2.7-8-2.7H124C124,93.2,124,116.3,124,116.3z"
			/>
	</g>
	<path class="st3" d="M241.2,50.9H947v78.5H241.2V50.9z"/>
	<g class="st4">
		<path class="st2" d="M254.1,128.3V63.5h-11.9V50.9H283v12.6h-11.8v64.7h-17.1V128.3z M288.8,128.3V50.9h15.6V78
			c3.9-3.9,8.4-5.9,13.5-5.9c3.3,0,5.8,1.2,7.5,3.6s2.6,5.5,2.6,9.2v43.4h-15.6v-41c0-1.4-0.2-2.4-0.7-3.1c-0.4-0.7-1.2-1-2.4-1
			c-1.4,0-3,0.7-4.9,2v43.1L288.8,128.3L288.8,128.3z M355.5,129.3c-6.1,0-10.8-1.6-14.1-4.9c-3.3-3.3-5-7.9-5-13.8V90.7
			c0-5.9,1.7-10.5,5-13.8s8.1-4.9,14.1-4.9c6.1,0,10.7,1.6,13.8,4.7c3.1,3.2,4.6,7.8,4.6,13.9v10.9h-22.1v9.7c0,2.2,0.3,3.9,0.8,5.1
			c0.6,1.1,1.5,1.7,2.8,1.7c2.6,0,3.9-1.8,3.9-5.4V109h14.5v3.2c0,5.5-1.6,9.7-4.8,12.6C365.8,127.8,361.3,129.3,355.5,129.3
			L355.5,129.3z M351.8,94.3h7.6v-5.5c0-2.1-0.3-3.5-1-4.4s-1.7-1.3-2.9-1.3s-2.1,0.5-2.7,1.5s-0.9,2.7-0.9,5.1v4.6
			C351.9,94.3,351.8,94.3,351.8,94.3z M382.3,128.3V73h15.3v4.5c3.7-3.7,8.1-5.5,13.2-5.5c2.2,0,4.1,0.6,5.7,1.7s2.9,2.7,3.7,4.9
			c3.9-4.4,8.6-6.5,14.1-6.5c3.2,0,5.8,1.2,7.7,3.5c1.9,2.4,2.9,5.6,2.9,9.8v42.9h-15.3V86.9c0-1.5-0.3-2.6-0.8-3.3
			c-0.5-0.7-1.4-1-2.5-0.9c-1.7,0.1-3.4,0.7-5.1,2v43.6H406V86.9c0-1.5-0.3-2.6-0.8-3.3c-0.5-0.7-1.4-1-2.5-1
			c-1.6,0.1-3.3,0.8-5.2,2.1v43.5h-15.2V128.3z M472.3,129.3c-6.1,0-10.8-1.6-14.1-4.9c-3.3-3.3-5-7.9-5-13.8V90.7
			c0-5.9,1.7-10.5,5-13.8s8.1-4.9,14.1-4.9c6.1,0,10.7,1.6,13.8,4.7c3.1,3.2,4.6,7.8,4.6,13.9v10.9h-22.1v9.7c0,2.2,0.3,3.9,0.8,5.1
			c0.6,1.1,1.5,1.7,2.8,1.7c2.6,0,3.9-1.8,3.9-5.4V109h14.5v3.2c0,5.5-1.6,9.7-4.8,12.6C482.7,127.8,478.1,129.3,472.3,129.3
			L472.3,129.3z M468.6,94.3h7.6v-5.5c0-2.1-0.3-3.5-1-4.4s-1.7-1.3-2.9-1.3s-2.1,0.5-2.7,1.5s-0.9,2.7-0.9,5.1v4.6
			C468.7,94.3,468.6,94.3,468.6,94.3z M515.4,129.3c-4.7,0-8.6-1.1-11.7-3.3s-5.6-5.7-7.5-10.6l10.8-4.7c1.1,2.6,2.3,4.6,3.7,6.1
			c1.3,1.3,2.6,2,4,2h0.5c1-0.1,1.8-0.4,2.4-1.1s1-1.6,0.9-2.6c0-0.5-0.2-1.1-0.6-1.7c-0.4-0.6-1-1.4-2-2.3s-1.7-1.6-2.1-1.9
			c-0.4-0.3-1.3-1.1-2.7-2.3l-4.3-3.7c-6.3-5.3-9.4-10.5-9.4-15.5c0-3,0.8-5.7,2.4-8.1s3.6-4.2,6.2-5.4c2.6-1.3,5.4-1.9,8.4-1.9
			c4.5,0,8.3,1.2,11.3,3.7s5.2,6,6.4,10.5l-10,4.5c-0.6-2.1-1.5-3.9-2.7-5.5s-2.5-2.4-4-2.5h-0.1c-1.1,0-2,0.3-2.6,0.9
			c-0.7,0.6-1,1.4-1.1,2.3c-0.1,1.5,2.1,4.1,6.6,7.9c0.4,0.3,0.7,0.6,0.8,0.7l4.2,3.7c1.6,1.4,2.8,2.5,3.6,3.3s1.8,1.9,2.9,3.3
			c1.2,1.4,2,2.8,2.5,4.3s0.8,3,0.8,4.7c0,3.1-0.8,5.9-2.5,8.2c-1.7,2.3-3.8,4.1-6.5,5.2C521.3,128.6,518.5,129.3,515.4,129.3
			L515.4,129.3z M564.9,128.3V50.9h20.2c2.9,0,5.5,0.1,7.7,0.4s4.5,0.9,6.7,1.8s4.1,2,5.5,3.5c1.4,1.4,2.6,3.4,3.5,5.9
			c0.8,2.3,1.2,5,1.2,8v0.7c-0.1,9-3.9,14.2-11.3,15.5c4.4,0.6,7.8,2.5,10.2,5.6s3.5,7.5,3.6,13v0.5c0,7.6-2,13.2-5.9,16.8
			c-4,3.7-9.9,5.6-17.5,5.6h-23.9V128.3z M582,81.8h3.3c3.7,0,6.2-0.8,7.5-2.5c1.3-1.6,2-4.3,2-7.8c0-6.1-3.3-9.1-10-9.1H582V81.8z
			 M582,116.3h3.6c3.7,0,6.3-0.9,7.8-2.7s2.2-4.7,2.2-8.5c0-4.4-0.8-7.4-2.3-9.2s-4.2-2.7-8-2.7H582C582,93.2,582,116.3,582,116.3z
			 M652.6,124.6c-3.4,3.1-8.2,4.7-14.2,4.7s-10.8-1.6-14.1-4.7s-5.1-7.6-5.1-13.5V90.2c0-5.9,1.7-10.4,5.1-13.5s8.1-4.6,14.1-4.6
			s10.8,1.6,14.2,4.7s5.2,7.6,5.2,13.5v20.9C657.8,117,656.1,121.5,652.6,124.6z M638.4,118.8c1.5,0,2.5-0.6,3.1-1.7s0.9-2.8,0.9-5
			v-23c0-2.2-0.3-3.9-0.9-5c-0.6-1.1-1.6-1.7-3.1-1.7c-1.4,0-2.4,0.6-3,1.7s-0.9,2.8-0.9,5v23c0,2.1,0.3,3.8,0.9,4.9
			C636,118.2,637,118.8,638.4,118.8z M698.8,124.6c-3.4,3.1-8.2,4.7-14.2,4.7s-10.8-1.6-14.1-4.7c-3.4-3.1-5.1-7.6-5.1-13.5V90.2
			c0-5.9,1.7-10.4,5.1-13.5c3.4-3.1,8.1-4.6,14.1-4.6s10.8,1.6,14.2,4.7s5.2,7.6,5.2,13.5v20.9C704,117,702.2,121.5,698.8,124.6z
			 M684.6,118.8c1.5,0,2.5-0.6,3.1-1.7s0.9-2.8,0.9-5v-23c0-2.2-0.3-3.9-0.9-5c-0.6-1.1-1.6-1.7-3.1-1.7c-1.4,0-2.4,0.6-3,1.7
			s-0.9,2.8-0.9,5v23c0,2.1,0.3,3.8,0.9,4.9C682.1,118.2,683.2,118.8,684.6,118.8z M728.3,128.9c-1.7-0.1-3.3-0.3-4.6-0.7
			s-2.6-1-3.5-1.6c-1-0.7-1.8-1.5-2.5-2.5s-1.3-2-1.7-3.1s-0.8-2.3-1-3.7c-0.2-1.4-0.4-2.7-0.5-4s-0.1-2.7-0.1-4.4V83.2h-5.3V73h5.3
			V56.3h15.7V73h7.9v10.2h-7.9v28.6c0,2.9,1.7,4.4,5,4.5h1.4c0.5,0,0.9-0.1,1.3-0.1c0.3,0,0.7-0.1,1-0.2s0.5-0.1,0.5-0.1v12.3
			c-3.3,0.6-6.4,0.8-9.2,0.8C729.3,129,728.8,129,728.3,128.9L728.3,128.9z M762.6,129.3c-4.7,0-8.6-1.1-11.7-3.3s-5.6-5.7-7.5-10.6
			l10.8-4.7c1.1,2.6,2.3,4.6,3.7,6.1c1.3,1.3,2.6,2,4,2h0.5c1-0.1,1.8-0.4,2.4-1.1s1-1.6,0.9-2.6c0-0.5-0.2-1.1-0.6-1.7
			c-0.4-0.6-1-1.4-2-2.3s-1.7-1.6-2.1-1.9c-0.4-0.3-1.3-1.1-2.7-2.3L754,103c-6.3-5.3-9.4-10.5-9.4-15.5c0-3,0.8-5.7,2.4-8.1
			c1.6-2.4,3.6-4.2,6.2-5.4s5.4-1.9,8.4-1.9c4.5,0,8.3,1.2,11.3,3.7s5.2,6,6.4,10.5l-10,4.7c-0.6-2.1-1.5-3.9-2.7-5.5
			s-2.5-2.4-4-2.5h-0.1c-1.1,0-2,0.3-2.6,0.9c-0.7,0.6-1,1.4-1.1,2.3c-0.1,1.5,2.1,4.1,6.6,7.9c0.4,0.3,0.7,0.6,0.8,0.7l4.2,3.7
			c1.6,1.4,2.8,2.5,3.6,3.3s1.8,1.9,2.9,3.3c1.2,1.4,2,2.8,2.5,4.3s0.8,3,0.8,4.7c0,3.1-0.8,5.9-2.5,8.2c-1.7,2.3-3.8,4.1-6.5,5.2
			C768.6,128.7,765.7,129.3,762.6,129.3L762.6,129.3z M802.4,128.9c-1.7-0.1-3.3-0.3-4.6-0.7c-1.4-0.4-2.6-1-3.5-1.6
			c-1-0.7-1.8-1.5-2.5-2.5s-1.3-2-1.7-3.1s-0.8-2.3-1-3.7s-0.4-2.7-0.5-4s-0.1-2.7-0.1-4.4V83.2h-5.3V73h5.3V56.3h15.7V73h7.9v10.2
			h-7.9v28.6c0,2.9,1.7,4.4,5,4.5h1.4c0.5,0,0.9-0.1,1.3-0.1c0.3,0,0.7-0.1,1-0.2s0.5-0.1,0.5-0.1v12.3c-3.3,0.6-6.4,0.8-9.2,0.8
			C803.5,129,803,129,802.4,128.9L802.4,128.9z M820.7,128.3V73h15.6v9.2c3.4-6.6,7.1-9.9,11.1-9.9c0.6,0,1.3,0.1,2.2,0.4v13.8
			c-0.9-0.2-1.7-0.3-2.6-0.3c-4.3,0.2-7.8,2.4-10.7,6.7v35.4L820.7,128.3L820.7,128.3z M867.1,129.3c-3.9-0.1-7-1.5-9.4-4.2
			c-2.3-2.7-3.5-5.8-3.5-9.3c0-1.8,0.2-3.5,0.7-5.1s1-2.9,1.6-4.1s1.5-2.3,2.7-3.4s2.2-2,3.1-2.6c0.9-0.7,2.2-1.4,3.7-2.1
			c1.5-0.8,2.8-1.3,3.7-1.7c0.9-0.4,2.2-0.9,3.8-1.5s2.7-1,3.4-1.3v-5.5c0-1.6-0.2-2.8-0.7-3.6s-1.3-1.3-2.6-1.3
			c-2.1,0-3.2,1.5-3.4,4.4l-0.4,4.1l-14.6-0.6v-0.9v-0.9c0.5-6,2.3-10.5,5.6-13.3c3.3-2.9,8-4.3,14.1-4.3c5.4,0,9.6,1.5,12.4,4.5
			c2.8,3,4.3,7,4.3,12.1v25.7c0,3.5,0.3,8.2,1,13.9H879c-0.8-4.5-1.2-7.1-1.3-7.8c-0.7,2.5-2,4.6-3.8,6.3
			C872.1,128.4,869.8,129.3,867.1,129.3L867.1,129.3z M872.7,118.5c0.7,0,1.5-0.3,2.3-0.8s1.4-1.1,1.9-1.8v-15.1
			c-2.5,1.2-4.5,3-6.1,5.3s-2.4,4.5-2.4,6.6c0,1.8,0.4,3.2,1.2,4.3C870.4,118,871.5,118.5,872.7,118.5z M901.2,146.5V73h15.6v4.1
			c3.8-3.3,7.6-5,11.5-5h0.5c4,0.1,6.9,1.7,8.9,4.8c1.9,3,2.9,6.9,2.9,11.6V112c0,5.3-1,9.5-3.2,12.6c-2.1,3.1-5.1,4.7-9,4.7
			s-7.7-1.7-11.7-5.1v22.4h-15.5V146.5z M921,119.1C921,119.1,921.1,119.1,921,119.1c1.4,0,2.4-0.6,3-1.7c0.6-1.2,0.9-2.7,1-4.5
			V87.2c0-1.7-0.3-3.1-1-4.2c-0.6-1-1.5-1.5-2.7-1.5h-0.4c-1.2,0.1-2.5,0.7-4.1,1.8v34.3C918.3,118.6,919.7,119.1,921,119.1z"/>
	</g>
</g>
<g id="Capa_3">
	<circle class="st6" cx="128.5" cy="90" r="77.5"/>
	<path class="st7" d="M101.2,50.9h56.4v78.5h-56.4L101.2,50.9z"/>
	<g class="st8">
		<path class="st5" d="M129.1,129.3c-4.3,0-8-0.6-11.1-1.8c-3-1.2-5.5-3-7.2-5.3c-1.8-2.3-3-5-3.8-8.1c-0.8-3-1.2-6.6-1.2-10.7V75.9
			c0-4.2,0.4-7.8,1.2-10.9c0.8-3.1,2-5.8,3.8-8.1s4.2-4.1,7.2-5.2c3-1.2,6.7-1.8,11.1-1.8c4.2,0,7.7,0.5,10.7,1.6
			c2.9,1.1,5.2,2.6,6.9,4.7c1.7,2.1,2.9,4.4,3.6,7c0.7,2.6,1.1,5.6,1.1,9.1V79h-16.7v-7.8v-2.8c0-0.6-0.1-1.4-0.3-2.4
			s-0.5-1.7-0.8-2.2c-0.4-0.5-0.9-0.9-1.7-1.3c-0.7-0.4-1.6-0.6-2.7-0.6s-2,0.2-2.7,0.6c-0.7,0.4-1.3,0.9-1.7,1.4
			c-0.4,0.5-0.7,1.3-0.9,2.2c-0.2,0.9-0.4,1.8-0.4,2.6s-0.1,1.7-0.1,2.9v36.1c0,3.1,0.4,5.5,1.2,7.1c0.8,1.6,2.3,2.5,4.6,2.5
			c1,0,1.9-0.2,2.6-0.6c0.7-0.4,1.3-0.8,1.7-1.4c0.4-0.5,0.7-1.3,0.9-2.2c0.2-1,0.3-1.8,0.4-2.5V99.7h16.7v6.7
			c0,2.8-0.2,5.3-0.7,7.5c-0.4,2.2-1.2,4.3-2.2,6.3s-2.4,3.6-4.1,5c-1.7,1.3-3.8,2.4-6.4,3.2C135.5,129,132.5,129.3,129.1,129.3
			L129.1,129.3z"/>
	</g>
	<path class="st7" d="M290.9,81.4c-0.3,1.5-1.5,2.6-3,3.1c0,0.1,0,0.2-0.1,0.3c1.9-0.7,3.7-1.3,5.6-1.9c-0.6-0.7-1-1.5-1.3-2.3
		C291.7,80.9,291.3,81.2,290.9,81.4z"/>
	<path class="st7" d="M570.5,95.7c1.6-1.1,3.2-2.1,5-2.8c-1.3,0-2.7,0-4-0.1c-0.5,0.5-1.2,0.8-2.1,1c-0.8,0.2-1.5,0.3-2.3,0.5
		c1.7,2.7,1.1,6.9-2.7,7.5c-0.2,0-0.4,0.1-0.6,0.1c0.7,2,0.3,4.3-2.3,5.4c-0.4,0.2-0.8,0.3-1.2,0.5h-0.2c-1.2,0.5-2.5,0.8-3.7,1.1
		c5.6-0.2,11.3-0.3,16.9-0.6c0.3-0.9,0.8-1.8,1.6-2.4c-1.1-0.4-2.2-0.8-3.2-1.2C567.6,103.1,566.8,98.4,570.5,95.7z"/>
	<path class="st7" d="M241.1,79.9c0.4-0.1,0.8-0.1,1.1-0.2l3-21c0.3-2.4,1.9-3.5,3.6-3.6c0.8-1.1,2.2-1.8,3.6-2
		c0.2-0.7,0.3-1.5,0.5-2.2h-11.8L241.1,79.9L241.1,79.9z"/>
	<path class="st7" d="M562.6,122.2c8-0.6,16.1-1.3,24.1-1.4c-0.8-0.7-1.3-1.7-1.6-2.8c-7.5,0.4-15,0.6-22.5,0.9
		C563,120,563,121.1,562.6,122.2z"/>
	<path class="st7" d="M278,84L278,84c-1.4-0.3-2.7-1.1-3.3-2.5c-1.7-3.7-3.1-7.6-4.6-11.4c-0.6,6.8-1.1,13.7-1.8,20.5
		c2.2,0.5,4.4,0.6,6.7,0.3c0.9,0,1.7,0.2,2.4,0.5c1.2-1.1,2.4-2.1,3.8-3C279.6,87.7,278.2,86.3,278,84z"/>
	<path class="st7" d="M287,53c2,0.2,4,1.3,4.7,3.3c1.9-0.5,3.9,0.1,5.1,1.7c3.4,0.4,6.7,0.6,9.7,0.7c11.2,0.7,23.3,0.2,33.8,4.5
		c6.8-0.6,13.7-1.2,20.5-1.8c0.6-0.3,1.3-0.5,2.2-0.5h3.2c7.5-0.6,15-1.3,22.4-2.3c1.8-0.2,3.6-0.5,5.5-0.7
		c8.3-3.6,17.5-5.7,26.7-7.1H287V53z"/>
	<path class="st7" d="M531.4,67.8c2.4-0.3,4.8-0.5,7.1-0.7c8.9-6.3,20.9-7.8,31.3-8.9c1.7-0.2,3.5-0.3,5.2-0.4
		c-2-1.7-2.8-4.8-1.1-6.8h-74.2c0.6,0.1,1.1,0.2,1.7,0.3c5.4,0.9,4,8,0,9.6c-6.3,2.5-13.1,4-20,4.8c-0.5,0.5-1.2,0.9-2,1.2
		c-3.2,0.9-6.4,1.6-9.6,2.1c0.2,0.9,0.1,2-0.2,2.9c11-2,22.5-2,33.4-2.9c1.5-0.1,2.6,0.4,3.5,1.3c0.3,0,0.5-0.1,0.8-0.1
		c6.1-1.9,12.4-3.3,18.4-5C528.5,64.4,530.5,65.8,531.4,67.8z"/>
	<path class="st7" d="M882,80.1c-4-0.4-8-0.6-12.1-0.6c1.1,0.2,2.3,0.5,3.4,0.7c0.7,0.2,1.4,0.5,1.9,1
		C877.5,80.9,879.8,80.6,882,80.1L882,80.1z"/>
	<path class="st7" d="M380.6,71.3c-4.7-0.1-9.4-0.2-14.1-0.2c1.5,0.4,3.1,0.9,4.6,1.3c4.9,1.3,9.9,2.3,15,3.1
		c-1.2-0.6-2.4-1.3-3.6-2.1C381.6,72.8,381,72.1,380.6,71.3z"/>
	<path class="st7" d="M414.1,93L414.1,93c-0.1,0.2-0.2,0.4-0.2,0.6c1-0.1,2-0.3,2.9-0.4h0.1c0.3-0.5,0.7-0.9,1.3-1.2
		c-0.6,0-1.1,0.1-1.7,0.1C415.8,92.6,415,92.9,414.1,93z"/>
	<path class="st7" d="M296.8,67.9c-0.5,2.6-1.2,5.1-2,7.7c2.4-1.2,4.8-2,7.3-2.7l0,0c-0.2-1.7,0.5-3.4,2.3-4.3
		c-1.6-0.1-3.3-0.2-4.9-0.4L296.8,67.9z"/>
	<path class="st7" d="M637.9,50.9c0.4,0.5,0.6,1.1,0.8,1.7c4.6-0.2,9.2-0.2,13.8-0.4c1.5-0.1,3.1-0.2,4.6-0.2
		c4.3-0.2,5.7,4.1,4.3,7.1c2.3,0.3,4.7,0.7,7,1.1c1.7,0.3,2.8,1.5,3.3,2.9c7.5,0.6,14.9,1.4,22.1,2.4c11.1-0.9,22.4-0.5,33.3-0.5
		c2,0,3.4,1.1,4.2,2.5c5.6-0.5,11.2-1.1,16.8-1.5c1.4-0.1,2.5,0.3,3.3,0.9c13.5-0.2,27-0.8,40.3-2.4c0.3-0.3,0.5-0.6,0.9-0.8
		c5-3.8,11.6-5.5,18.1-5.7c0.8-0.3,1.6-0.2,2.4,0c3.2,0.1,6.4,0.5,9.4,1.2c4.2,1,4.6,6.6,1.6,8.9c1.4,0.1,2.8,0.1,4.2,0.1
		c14.4-3.5,30.4-2.6,44.6-5c4.4-0.7,7,3.6,6.1,6.7c7.9,0.5,15.8,1.5,23.6,3.3c4.4,1,4.6,6.9,1.2,9.1c-9.9,6.5-22.5,8.7-34.7,9.4
		c0.1,0.8,0,1.5-0.2,2.2h7.4c3.1,0,4.7,2.3,4.8,4.7c3.5,0.4,7,0.8,10.5,1.5c4.8,0.9,4.7,8.6,0,9.6c-8.1,1.8-18.3,3.5-26.5,0.5
		c-0.3,0.1-0.6,0.3-0.9,0.3v0.6c6.7,0.5,13.4,1.1,20.1,1.8c6.5,0.7,6.4,9.3,0,10c-7.2,0.8-14.4,1.4-21.6,1.8c1.3,1.2,2,2.8,1.6,4.6
		h83V50.9H637.9z"/>
	<path class="st7" d="M336.3,126.3c-3.5,0.2-6.9,0.4-10.3,0.5c0.3,0.5,0.5,1.1,0.6,1.6h0.2c1.2,0,2.2,0.4,3,1h8.1
		C337,128.5,336.5,127.4,336.3,126.3L336.3,126.3z"/>
	<path class="st7" d="M241.2,115.9v13.5h5.6c-2.2-1.7-2.1-5.7,0.2-7.9C244.7,120.1,242.6,118.2,241.2,115.9z"/>
	<path class="st7" d="M242.9,90.6c-0.5-0.2-1.1-0.3-1.7-0.5v7.2c0.9-0.1,1.8-0.3,2.7-0.4C242.2,95.5,241.8,92.8,242.9,90.6z"/>
	<path class="st7" d="M492.2,129.4h4.5c-0.3-0.1-0.5-0.3-0.7-0.5c-1.1,0.1-2.3,0.2-3.4,0.2C492.5,129.2,492.3,129.3,492.2,129.4z"/>
	<path class="st7" d="M486,129.1c-2-0.1-4-0.3-5.8-0.5c-1.7-0.2-3.5-0.4-5.2-0.6c-0.1,0.5-0.1,0.9-0.2,1.4h11.6
		C486.3,129.3,486.1,129.2,486,129.1z"/>
	<path class="st7" d="M748.7,129.3c-3-0.2-6,0-9-0.1c0,0.1,0.1,0.1,0.1,0.2h10.6C749.8,129.4,749.2,129.3,748.7,129.3L748.7,129.3z"
		/>
	<path class="st7" d="M416.1,129.3h9.6c-0.2-0.4-0.4-0.9-0.5-1.5C422.2,128.3,419.1,128.8,416.1,129.3z"/>
</g>
<ellipse class="st6" cx="128.5" cy="90" rx="46.6" ry="47.5"/>
<g>
	<path class="st5" d="M103.9,65.4c0.2-0.9,0.5-1.8,0.8-2.8s0.7-1.9,1.2-2.8c0.5-0.8,1.2-1.5,2-2.1s1.9-0.8,3.1-0.8s2.3,0.3,3.2,1
		c0.9,0.7,1.8,1.3,2.5,2c0.9,0.6,1.7,1.8,2.6,3.5c0.8,1.8,1.7,4,2.5,6.6c0.9,2.6,1.8,5.5,2.8,8.8s2.1,6.7,3.3,10.3
		c1.2,3.6,2.6,7.3,4.1,11s3.2,7.4,5.1,10.9c0.3,0.5,0.7,1.2,1.1,1.9c0.4,0.7,0.8,1.4,1.3,2.1c0.4,0.6,0.8,1.2,1.2,1.6
		s0.6,0.7,0.8,0.7c0.1,0,0.2-0.3,0.4-0.8c0.1-0.5,0.3-1.1,0.5-1.8s0.4-1.5,0.5-2.2c0.2-0.8,0.4-1.4,0.5-1.8c0.6-1.6,1.4-3.4,2.1-5.4
		c0.8-2,1.6-4.5,2.6-7.4c0.9-2.9,2-6.3,3.1-10.3s2.4-8.7,3.7-14.1c0.3-1.3,0.7-2.8,1.1-4.5c0.4-1.7,0.8-3.4,1.1-5.2
		c0.4-1.8,0.7-3.5,0.9-5.2c0.3-1.7,0.5-3.1,0.6-4.4c0-0.2,0-0.6,0.1-1.1c0-0.5,0.1-1.1,0.2-1.7c0.1-0.6,0.2-1.3,0.3-2
		s0.3-1.3,0.5-1.9c0.2-0.6,0.5-1.1,0.8-1.4c0.3-0.4,0.8-0.6,1.2-0.6c0.5,0,1.1,0.1,1.8,0.2s1.3,0.3,1.9,0.6c0.6,0.9,1.2,2,1.8,3.2
		c0.5,1.2,0.8,2.9,0.8,5.1c0,1.3-0.1,2.9-0.4,4.8c-0.3,1.9-0.6,3.9-1.1,6c-0.4,2.1-0.9,4.3-1.4,6.6c-0.5,2.3-1.1,4.4-1.6,6.5
		s-1.1,4-1.6,5.7s-0.9,3.2-1.3,4.3c-0.6,2-1.3,4-1.9,6.1c-0.7,2.1-1.4,4.3-2.2,6.6c-0.8,2.3-1.7,4.8-2.6,7.3c-0.9,2.6-2,5.3-3.2,8.3
		c-0.5,1.3-1.1,2.7-1.8,4s-1.4,2.5-2.3,3.6c-0.9,1.1-1.8,1.9-2.9,2.6c-1.1,0.7-2.3,1-3.6,1c-0.8,0-1.6-0.1-2.4-0.3
		c-0.8-0.2-1.5-0.7-2.1-1.4c-2.8-3.2-5.3-6.9-7.5-11s-4.1-8.4-5.9-12.9c-1.7-4.5-3.3-9-4.6-13.6c-1.3-4.6-2.5-9-3.6-13.2l-0.3-1.2
		c-0.1-0.5-0.3-1-0.4-1.5s-0.2-0.9-0.4-1.4c-0.1-0.4-0.3-0.7-0.4-1c-0.2-0.3-0.3-0.4-0.5-0.4s-0.5,0.4-0.8,1.1
		c-0.3,0.8-0.6,1.6-0.9,2.5s-0.6,1.9-0.8,2.7c-0.3,0.9-0.4,1.5-0.5,1.7c-0.2,0.9-0.6,2.2-1.1,3.8c-0.5,1.7-1,3.5-1.6,5.6
		s-1.2,4.3-1.9,6.6s-1.4,4.6-2,6.7c-0.6,2.2-1.3,4.2-1.8,6c-0.6,1.8-1.1,3.3-1.4,4.5c-0.3,0.9-0.7,2-1.1,3.4s-0.9,2.8-1.3,4.2
		c-0.4,1.4-0.9,2.7-1.2,3.9c-0.4,1.2-0.6,1.9-0.7,2.3c-0.4,1.3-1,2.3-1.8,2.9c-0.8,0.7-1.6,1-2.4,1c-0.5,0-1-0.2-1.5-0.5
		c-0.5-0.4-1-0.8-1.4-1.3s-0.7-1.1-1-1.7s-0.4-1.1-0.4-1.6c0-0.3,0.1-0.7,0.3-1.3c0.2-0.6,0.4-1.6,0.8-3l1.3-5.3L103.9,65.4
		L103.9,65.4z"/>
</g>
<text transform="matrix(1 0 0 1 252.9002 137.4996)" class="st6 st9 st10">NoyAcg</text>
</svg>
